<?xml version="1.0" encoding="UTF-8"?>
<svg version="1.1" xmlns="http://www.w3.org/2000/svg" width="906" height="578">
<path d="M0 0 C1.3499197 -0.00448593 2.6998345 -0.01072035 4.04973909 -0.01852533 C7.74211922 -0.03484624 11.4340838 -0.02648863 15.12646315 -0.0139137 C19.15002493 -0.00463613 23.17351909 -0.01860781 27.19706744 -0.02955288 C34.24332719 -0.04551603 41.28946747 -0.04664191 48.33573818 -0.03795528 C58.81399908 -0.02507247 69.29215215 -0.03505414 79.77040659 -0.04945483 C98.48631493 -0.0743837 117.20217268 -0.07627937 135.91809278 -0.06818072 C152.29859467 -0.06110733 168.67907691 -0.06105108 185.0595789 -0.06804371 C187.25703062 -0.06895504 189.45448235 -0.0698658 191.65193408 -0.070776 C194.96332182 -0.07215913 198.27470955 -0.07355022 201.58609728 -0.07496213 C232.3718964 -0.08794273 263.15768894 -0.09305748 293.94348907 -0.08142853 C295.10394677 -0.08099056 296.26440447 -0.08055259 297.46002755 -0.08010134 C306.88368979 -0.07649454 316.30735195 -0.07265976 325.73101409 -0.06881041 C362.48811382 -0.05396375 399.24513924 -0.06274085 436.00223064 -0.09076595 C477.30379312 -0.12219576 518.60531162 -0.1371632 559.90688628 -0.12696594 C564.31096374 -0.12592917 568.71504121 -0.12494194 573.11911869 -0.12398243 C574.74569908 -0.1236091 574.74569908 -0.1236091 576.40513969 -0.12322823 C592.77241189 -0.11978857 609.13964525 -0.1290928 625.50690937 -0.14475346 C644.12169446 -0.16252369 662.736385 -0.16265205 681.35116605 -0.1394018 C691.76609983 -0.12690383 702.18081638 -0.12814403 712.5957374 -0.14928266 C719.55677061 -0.16202089 726.51763677 -0.15650841 733.47865186 -0.13629786 C737.4420761 -0.12529608 741.40507378 -0.12202865 745.36847768 -0.14097316 C775.41939496 -0.27460971 775.41939496 -0.27460971 787.29007244 5.50615788 C788.29578267 5.96215962 789.30149291 6.41816137 790.33767921 6.88798136 C798.22642527 10.60294367 804.18384614 16.42625152 810.29007244 22.50615788 C810.96038494 23.14166569 811.63069744 23.7771735 812.32132244 24.43193913 C816.33844141 28.54948607 818.93890461 33.23806636 821.54007244 38.31865788 C821.86975018 38.95827457 822.19942791 39.59789127 822.53909588 40.2568903 C828.29392036 52.05663661 828.7242255 63.21972793 828.67775249 76.07750797 C828.68192958 77.96134818 828.68740916 79.84518587 828.69407231 81.72901893 C828.70849659 86.88577658 828.70429158 92.042374 828.69690549 97.19914031 C828.69216861 102.7684899 828.70468837 108.33780509 828.7149229 113.90714359 C828.73210664 124.81076782 828.7329517 135.7143344 828.72771 146.61796865 C828.72366589 155.48295399 828.72511474 164.34792231 828.73045826 173.21290684 C828.73120668 174.47542569 828.7319551 175.73794455 828.73272621 177.03872155 C828.73425771 179.60368771 828.73579606 182.16865386 828.73734117 184.73362002 C828.74716784 201.95195689 828.75133598 219.17028561 828.74371529 236.38862324 C828.74326953 237.39791727 828.74326953 237.39791727 828.74281476 238.42760107 C828.74036601 243.8911473 828.73775433 249.35469345 828.73513063 254.8182396 C828.72503178 276.12130611 828.73337859 297.42429377 828.75662518 318.72734928 C828.78272426 342.68295887 828.79548895 366.63851464 828.78843743 390.59414363 C828.78494708 403.27008337 828.78716502 415.9459584 828.80468845 428.62188816 C828.81942275 439.41392191 828.82002986 450.20584536 828.80261754 460.99787697 C828.79411493 466.50050482 828.79194006 472.00293575 828.8072691 477.50555325 C828.82114814 482.55028079 828.81631159 487.5946433 828.79702986 492.63934991 C828.79327938 494.45690614 828.7961641 496.27449183 828.80664151 498.09202173 C828.88160719 512.10104236 827.279164 525.03450403 820.72757244 537.69365788 C820.39241619 538.35164371 820.05725994 539.00962955 819.71194744 539.68755436 C815.96821244 546.65553044 810.94727527 552.05010003 805.29007244 557.50615788 C804.65714275 558.17002506 804.02421307 558.83389225 803.37210369 559.51787663 C799.28151927 563.53622114 794.59733675 566.1498727 789.54007244 568.75615788 C788.90883465 569.08583561 788.27759686 569.41551334 787.62723064 569.75518131 C777.36916342 574.78321677 767.00142938 575.94925322 755.70508385 575.88647461 C754.36881038 575.88991521 753.03253977 575.89466675 751.69627503 575.90059558 C748.04183704 575.91304054 744.38763416 575.90698465 740.73319539 575.8977619 C736.75070885 575.89102933 732.76826166 575.90172961 728.78578359 575.91015774 C721.81163904 575.92251368 714.83756179 575.92374171 707.86341 575.91760731 C697.49237494 575.90850945 687.12140201 575.91655376 676.75037171 575.92789855 C658.22589543 575.94756232 639.70144714 575.94991341 621.17696291 575.94470335 C604.96397881 575.94014568 588.75100579 575.94074597 572.53802204 575.94654369 C570.36299747 575.94730056 568.18797291 575.94805654 566.01294834 575.94881164 C562.73535182 575.94995684 559.45775531 575.95110671 556.1801588 575.95227088 C525.70872742 575.96297562 495.23729974 575.96770142 464.76586723 575.95980072 C463.61727242 575.95950355 462.46867761 575.95920637 461.28527689 575.9589002 C451.95796394 575.95645128 442.63065104 575.95383968 433.30333815 575.95121606 C396.92218973 575.94111404 360.54108747 575.94946831 324.15994549 575.97271061 C283.28028892 575.99878459 242.40066015 576.01163075 201.52099496 576.00452286 C197.16185336 576.0038068 192.80271175 576.00313242 188.44357014 576.00248241 C187.37024841 576.00231261 186.29692669 576.0021428 185.19108006 576.00196784 C168.99126555 575.99966518 152.79147685 576.00764031 136.59166813 576.02077389 C118.16720389 576.03568445 99.74280011 576.03652919 81.31833716 576.01870298 C71.01007558 576.0091399 60.70195502 576.01057504 50.39370285 576.02793767 C43.50377907 576.03843095 36.61396265 576.03432138 29.72404943 576.01845763 C25.80127899 576.00983058 21.87878479 576.00738933 17.9560286 576.02272695 C14.37908208 576.03658005 10.80264638 576.03164019 7.22572904 576.01244176 C5.35048505 576.00701257 3.47521445 576.02095951 1.6000227 576.0359731 C-18.64207357 575.8635926 -35.11757467 567.47014984 -49.66695881 553.64678288 C-64.38751492 538.0954956 -68.48289596 518.85330992 -68.34484577 498.22637272 C-68.35061923 496.32655118 -68.3585685 494.42673525 -68.36848199 492.52693081 C-68.3892104 487.34909158 -68.37910429 482.17171755 -68.3635509 476.99387741 C-68.35218359 471.39322407 -68.36972668 465.7926477 -68.38345051 460.19200993 C-68.4056302 449.23722723 -68.4009052 438.28261627 -68.3863873 427.32782698 C-68.3750743 418.42100877 -68.37357308 409.51423854 -68.37900639 400.6074152 C-68.37977255 399.33753643 -68.38053872 398.06765767 -68.3813281 396.75929773 C-68.3829268 394.17919396 -68.38454787 391.5990902 -68.38619106 389.01898646 C-68.40002751 365.5396675 -68.38570268 342.06046354 -68.35947807 318.58116516 C-68.33575245 297.17655542 -68.33787569 275.77209445 -68.36178303 254.367486 C-68.38859338 230.28363286 -68.39905998 206.19988116 -68.38372171 182.1160078 C-68.38212904 179.54563873 -68.38055719 176.97526965 -68.37900639 174.40490055 C-68.37823501 173.14038103 -68.37746363 171.8758615 -68.37666888 170.5730232 C-68.37236006 161.68163479 -68.3796208 152.79029932 -68.39140415 143.89891911 C-68.40545791 133.05650051 -68.40156869 122.21426279 -68.37500043 111.3718648 C-68.36190107 105.84474297 -68.35664363 100.31792224 -68.37324619 94.79080296 C-68.38823918 89.7227027 -68.37980434 84.65518021 -68.35335843 79.58713174 C-68.3478129 77.7623095 -68.35052458 75.93743757 -68.36273737 74.11264777 C-68.49723118 52.3315735 -61.91366305 34.37391102 -46.69039631 18.38506413 C-33.64433782 5.96831458 -17.86045578 -0.13234682 0 0 Z " fill="#26C8FB" transform="translate(69.70992755889893,-0.5061578750610352)"/>
<path d="M0 0 C1.36743599 -0.00956978 1.36743599 -0.00956978 2.76249695 -0.01933289 C4.23128044 -0.02100212 4.23128044 -0.02100212 5.72973633 -0.02270508 C6.74594559 -0.02603348 7.76215485 -0.02936188 8.80915833 -0.03279114 C10.96016996 -0.03785215 13.11118945 -0.04019972 15.26220703 -0.04003906 C18.53211657 -0.04221658 21.80168373 -0.06035646 25.0715332 -0.0793457 C27.1659331 -0.08228169 29.26033459 -0.08426511 31.35473633 -0.08520508 C32.80833809 -0.09598335 32.80833809 -0.09598335 34.29130554 -0.10697937 C47.87720901 -0.06190769 59.49294258 4.01394627 70.37426758 12.14526367 C71.04200195 12.62350586 71.70973633 13.10174805 72.39770508 13.59448242 C83.30274642 22.15041407 91.41319768 37.5378399 93.37426758 51.14526367 C93.46959525 53.96864511 93.51599972 56.76041018 93.49926758 59.58276367 C93.49733398 60.3695752 93.49540039 61.15638672 93.4934082 61.96704102 C93.44183822 69.05648123 93.01007753 76.0832317 92.37426758 83.14526367 C93.29981445 83.43143555 94.22536133 83.71760742 95.17895508 84.01245117 C100.483513 85.89304017 103.92530534 88.92492623 106.74926758 93.70776367 C109.65185548 100.13232016 109.35993269 107.77398896 107.37426758 114.45776367 C104.82936997 120.29032805 99.14272743 124.7015984 93.37426758 127.14526367 C90.62426758 127.27026367 90.62426758 127.27026367 88.37426758 127.14526367 C88.41551758 128.27963867 88.45676758 129.41401367 88.49926758 130.58276367 C88.40434665 150.73764077 84.1026451 167.99442411 69.99926758 182.95776367 C65.88666405 186.95003285 61.54515757 189.71262275 56.37426758 192.14526367 C60.40026904 193.6912845 64.4123005 195.18789171 68.53051758 196.46948242 C91.08905058 203.5019205 111.08975376 215.0097348 128.37426758 231.14526367 C129.23544189 231.94867188 129.23544189 231.94867188 130.11401367 232.76831055 C149.59235161 251.14843083 149.59235161 251.14843083 150.12426758 259.20776367 C149.15470839 267.38215058 145.06975604 275.2799556 139.37426758 281.14526367 C132.42725749 286.6056136 125.61365134 288.44736599 116.81681824 288.41268921 C115.96866289 288.41722032 115.12050754 288.42175143 114.24665052 288.42641985 C111.41177373 288.43905458 108.57708929 288.43744408 105.7421875 288.43579102 C103.70666762 288.44177684 101.67115001 288.44858251 99.63563538 288.45614624 C94.11075704 288.47380793 88.58594066 288.4785017 83.06103683 288.47977781 C79.60788247 288.48119988 76.15474385 288.48547053 72.7015934 288.49077225 C60.65066147 288.5092731 48.59977378 288.51744279 36.54882812 288.51586914 C25.32211386 288.51466774 14.09559185 288.53576978 2.86892623 288.56735647 C-6.77542614 288.59352264 -16.41971572 288.60423629 -26.06410331 288.60295832 C-31.82173814 288.60244879 -37.5792021 288.60812732 -43.33680153 288.62931442 C-48.75331609 288.64870239 -54.16949688 288.64881725 -59.58602333 288.63428116 C-61.57053618 288.63219267 -63.55506995 288.6368963 -65.53954697 288.64900208 C-68.25586498 288.66449503 -70.97103787 288.65511989 -73.68733215 288.63973999 C-74.46634111 288.65002712 -75.24535006 288.66031424 -76.04796535 288.6709131 C-84.95415891 288.56003146 -93.31764642 284.37383598 -99.62573242 278.14526367 C-103.30343861 273.23632541 -106.40798547 268.411537 -106.62573242 262.14526367 C-105.14135742 259.39135742 -105.14135742 259.39135742 -102.87573242 256.58276367 C-102.47104736 256.07390625 -102.0663623 255.56504883 -101.64941406 255.04077148 C-100.32723325 253.3923774 -98.97884368 251.76832945 -97.62573242 250.14526367 C-96.70248496 249.01641498 -95.77930823 247.88750843 -94.85620117 246.75854492 C-72.80598004 220.03931991 -44.57859149 203.18466518 -11.62573242 193.14526367 C-12.2315918 192.81655273 -12.83745117 192.4878418 -13.46166992 192.14916992 C-30.33951379 182.56774779 -38.59235013 170.24541054 -44.62573242 152.14526367 C-44.84108883 150.30155095 -45.01402923 148.45272387 -45.16088867 146.60229492 C-45.29140625 144.99257813 -45.29140625 144.99257813 -45.42456055 143.3503418 C-45.51157227 142.23079102 -45.59858398 141.11124023 -45.68823242 139.95776367 C-45.77911133 138.82661133 -45.86999023 137.69545898 -45.96362305 136.5300293 C-46.18766856 133.73535631 -46.40823386 130.94045256 -46.62573242 128.14526367 C-47.23118896 127.95988037 -47.83664551 127.77449707 -48.46044922 127.58349609 C-49.26135986 127.32930908 -50.06227051 127.07512207 -50.88745117 126.81323242 C-51.67853271 126.56597412 -52.46961426 126.31871582 -53.28466797 126.06396484 C-59.11908292 123.77437224 -63.45784208 119.24922285 -65.95776367 113.53979492 C-67.98358149 106.27765269 -67.75371097 99.2742734 -64.06323242 92.64526367 C-61.121327 88.364861 -58.13749427 85.69909114 -53.62573242 83.14526367 C-52.63573242 83.14526367 -51.64573242 83.14526367 -50.62573242 83.14526367 C-50.73401367 81.70860352 -50.73401367 81.70860352 -50.84448242 80.24291992 C-51.15757305 75.87960026 -51.40723507 71.51428878 -51.62573242 67.14526367 C-51.66263184 66.41903809 -51.69953125 65.6928125 -51.73754883 64.94458008 C-52.52129741 47.20774683 -48.07125509 31.52257993 -36.31323242 17.77026367 C-26.94299854 8.02079604 -13.90444766 0.06634061 0 0 Z " fill="#321B41" transform="translate(172.625732421875,94.854736328125)"/>
<path d="M0 0 C1.60163259 -0.00433173 3.20326049 -0.0108502 4.80487633 -0.01936007 C9.19536773 -0.03633161 13.58528775 -0.02218439 17.97574902 -0.00284529 C22.71475089 0.0125926 27.45368325 -0.00082299 32.19268799 -0.0105896 C41.47215962 -0.02511325 50.75141239 -0.01288502 60.03086329 0.00852364 C70.83755414 0.03254021 81.6441949 0.03081886 92.45090652 0.02821773 C111.73310421 0.02452776 131.01519883 0.04535135 150.29736328 0.07946777 C169.0070252 0.11255896 187.71657894 0.12672602 206.42626953 0.1204834 C226.80075853 0.11371874 247.17520221 0.11618179 267.54968452 0.1358428 C269.16592655 0.13740203 269.16592655 0.13740203 270.81481993 0.13899276 C272.97889636 0.14108365 275.14297277 0.14319462 277.30704916 0.14532593 C284.83952992 0.15222036 292.37199672 0.15289103 299.90447998 0.15144348 C309.08428912 0.15000348 318.26401007 0.15970002 327.44378996 0.18338984 C332.1272891 0.19524645 336.81066534 0.20237719 341.49417877 0.19655228 C345.78242618 0.19137655 350.07041405 0.20008247 354.35861707 0.21982688 C355.90897392 0.22456242 357.45935609 0.22427203 359.00970912 0.21841651 C376.58835593 0.15844494 376.58835593 0.15844494 381.86664772 5.00248766 C386.27014132 10.00473 387.60838802 13.67205059 387.68408203 20.26672363 C387.69401184 20.92584747 387.70394165 21.58497131 387.71417236 22.2640686 C387.74331848 24.43923165 387.75700517 26.61410266 387.76806641 28.78942871 C387.7795807 30.30914816 387.79109602 31.8288676 387.8026123 33.34858704 C387.82360697 36.53534288 387.83530762 39.72199824 387.84228516 42.90881348 C387.85322716 46.97315864 387.9012281 51.0361543 387.95822906 55.10007763 C387.99566791 58.24100995 388.00590284 61.38162388 388.00895691 64.52276039 C388.01497332 66.01979227 388.03090608 67.51682102 388.05732727 69.01363182 C388.20314863 77.91265257 387.83776603 84.92062011 381.36181641 91.62145996 C376.54150161 95.75563666 372.22360933 96.746124 365.97109699 96.75568104 C365.31663162 96.75803327 364.66216624 96.7603855 363.98786858 96.76280901 C361.77951898 96.76950294 359.57122816 96.76904067 357.36286926 96.76863098 C355.76968298 96.77192936 354.17649754 96.77565487 352.58331317 96.77977246 C348.1931258 96.78980352 343.8029521 96.79351103 339.41275489 96.79616177 C334.68254315 96.80006154 329.95234227 96.80964009 325.22213745 96.81837463 C313.7927741 96.83814813 302.36340985 96.8482063 290.93403366 96.85710242 C285.55410726 96.8614838 280.17418184 96.86685099 274.79425621 96.87209129 C256.91427852 96.88910432 239.03430145 96.9035991 221.1543169 96.91084003 C216.51311556 96.91274998 211.87191422 96.91467031 207.23071289 96.91662598 C206.07713996 96.91710972 204.92356703 96.91759346 203.73503735 96.91809186 C185.04264072 96.92639439 166.35030805 96.95173476 147.65793935 96.98420665 C128.47471394 97.01726006 109.29152105 97.03528723 90.10826701 97.03848428 C79.33439875 97.04065094 68.56062375 97.04942258 57.78678322 97.07494545 C48.61235063 97.09662895 39.43803394 97.10471444 30.26357863 97.09497867 C25.58208508 97.09042718 20.90083078 97.09236948 16.21936989 97.11174011 C11.93273786 97.12932397 7.64652049 97.12841305 3.35988434 97.11284282 C1.8100388 97.11045947 0.2601649 97.11482794 -1.28963723 97.12667147 C-9.27887114 97.18393781 -15.80561609 97.19297732 -22.63818359 92.62145996 C-27.58579273 87.54365058 -28.88218138 82.82893002 -28.94458008 75.84680176 C-28.95290359 75.1859256 -28.96122711 74.52504944 -28.96980286 73.84414673 C-28.9938042 71.6695966 -29.00266305 69.49534706 -29.00927734 67.32067871 C-29.01825187 65.79999202 -29.02737386 64.27930618 -29.03663635 62.75862122 C-29.05310257 59.57363749 -29.060822 56.38875858 -29.0637207 53.20373535 C-29.06909925 49.13836416 -29.1067662 45.07398906 -29.15246487 41.00889874 C-29.18232626 37.86801122 -29.18944622 34.72736085 -29.19044685 31.58634377 C-29.19463194 30.08851374 -29.20699712 28.59068189 -29.2279644 27.09299278 C-29.42581532 11.73742455 -29.42581532 11.73742455 -23.63818359 5.62145996 C-16.85052174 -0.74450485 -8.7255173 -0.07630677 0 0 Z " fill="#F3F3F3" transform="translate(414.63818359375,414.3785400390625)"/>
<path d="M0 0 C1.26171058 -0.00935994 1.26171058 -0.00935994 2.54891026 -0.01890898 C5.34239872 -0.03475021 8.13500377 -0.02226976 10.92849731 -0.00964355 C12.94151312 -0.0150687 14.95452494 -0.02219356 16.9675293 -0.03088379 C22.41807388 -0.04907558 27.86831464 -0.04206601 33.31886435 -0.02936745 C39.03389375 -0.01921556 44.74889776 -0.02863946 50.46392822 -0.03491211 C60.06219128 -0.04218331 69.66033111 -0.03261584 79.25857544 -0.0135498 C90.33821116 0.00820543 101.41755227 0.00117512 112.49718082 -0.02085543 C122.02529407 -0.03903923 131.5533189 -0.0415528 141.08144391 -0.03110075 C146.76530158 -0.02488062 152.44902105 -0.02398916 158.13286972 -0.0372467 C163.47969643 -0.04884749 168.82614552 -0.04070227 174.17293167 -0.01766968 C176.12918218 -0.01240461 178.08546475 -0.01385838 180.04170227 -0.02272034 C193.55552726 -0.07826947 204.93617988 0.38629231 215.2258606 10.21496582 C219.8990214 15.7232899 223.29771358 22.67101675 223.29422092 29.95321178 C223.29621197 30.86835118 223.29820302 31.78349057 223.3002544 32.72636145 C223.29734156 33.73316043 223.29442872 34.73995942 223.29142761 35.77726746 C223.29270925 37.37982312 223.29270925 37.37982312 223.29401678 39.01475364 C223.29567037 42.61235093 223.29015214 46.20990209 223.28469849 49.80749512 C223.28441656 52.37933348 223.28457445 54.95117193 223.28514099 57.52301025 C223.28566579 63.06909861 223.28252359 68.61517521 223.27690315 74.1612606 C223.26878219 82.18000574 223.26617232 90.19874519 223.26491516 98.21749399 C223.26272558 111.22682701 223.25606804 124.23615378 223.24661255 137.2454834 C223.237436 149.88415495 223.23035635 162.52282481 223.22610474 175.16149902 C223.22571065 176.32972554 223.22571065 176.32972554 223.2253086 177.52155259 C223.22400358 181.42858327 223.22273987 185.33561396 223.2214967 189.24264467 C223.21112702 221.66441253 223.19351125 254.08617271 223.1711731 286.50793457 C217.69437299 281.04420733 217.69437299 281.04420733 215.33914185 278.45715332 C214.85517944 277.92775146 214.37121704 277.39834961 213.87258911 276.85290527 C213.37299683 276.30593994 212.87340454 275.75897461 212.3586731 275.19543457 C210.29999214 272.96271886 208.23610023 270.73487251 206.1711731 268.50793457 C205.47765747 267.7577002 204.78414185 267.00746582 204.0696106 266.23449707 C186.2406972 247.64690651 162.51051272 235.89966013 138.1711731 228.50793457 C137.06257935 228.16633301 135.9539856 227.82473145 134.8117981 227.47277832 C132.60237605 226.80183801 130.39090619 226.14373752 128.1711731 225.50793457 C130.84233103 223.45643715 133.56990167 221.61017149 136.4211731 219.82043457 C148.93979359 211.48155086 156.03271454 200.14019979 159.1711731 185.50793457 C160.53169105 176.88697279 161.37838884 168.19696851 162.1711731 159.50793457 C162.77590454 159.32255127 163.38063599 159.13716797 164.00369263 158.94616699 C164.80403931 158.69197998 165.60438599 158.43779297 166.4289856 158.17590332 C167.61452026 157.80501587 167.61452026 157.80501587 168.82400513 157.42663574 C173.97964222 155.40867627 177.84176441 151.95448378 180.1086731 146.88293457 C182.28283169 139.73145692 182.48395272 132.21036275 178.9836731 125.50793457 C175.61033441 120.2531281 171.93769467 117.72804537 166.1711731 115.50793457 C166.19212036 114.611875 166.21306763 113.71581543 166.23464966 112.79260254 C166.30373153 109.39666 166.35340369 106.00148743 166.39089966 102.60510254 C166.41074213 101.14860082 166.43782546 99.6921757 166.47293091 98.23596191 C166.89786864 80.12611546 162.20484941 65.01186842 150.44070435 50.86340332 C139.87595622 39.8986131 126.45338409 33.74733758 111.30007935 33.31506348 C106.32933841 33.22555467 101.35794253 33.18594989 96.38650513 33.15783691 C94.25716165 33.14134542 92.12787195 33.11414648 89.99880981 33.07580566 C73.26704738 32.77697779 58.76365543 33.61835504 45.1711731 44.50793457 C44.42480591 45.05836426 43.67843872 45.60879395 42.90945435 46.17590332 C32.18834566 54.71274538 25.36146378 69.10973237 23.1711731 82.50793457 C23.08977456 85.08695537 23.05440124 87.6371187 23.07351685 90.21496582 C23.07563927 91.30305794 23.07563927 91.30305794 23.07780457 92.41313171 C23.08337379 94.71560907 23.09592049 97.01798692 23.1086731 99.32043457 C23.11369208 100.88749045 23.11825429 102.45454787 23.12234497 104.02160645 C23.13333312 107.85042046 23.15057636 111.67916068 23.1711731 115.50793457 C22.63355347 115.74302734 22.09593384 115.97812012 21.54202271 116.22033691 C17.14297098 118.25771904 14.26912941 119.83774228 11.7336731 124.13293457 C11.26058716 124.9089502 10.78750122 125.68496582 10.30007935 126.48449707 C7.0404261 132.32705894 7.09590409 139.48539208 8.8196106 145.93371582 C11.39990921 151.61257815 15.66005624 156.13007111 21.51223755 158.42663574 C22.30331909 158.67389404 23.09440063 158.92115234 23.90945435 159.17590332 C25.11082031 159.55718384 25.11082031 159.55718384 26.3364563 159.94616699 C26.94191284 160.13155029 27.54736938 160.31693359 28.1711731 160.50793457 C28.20557495 161.16165039 28.23997681 161.81536621 28.27542114 162.4888916 C29.39908522 182.30370581 31.90769978 200.51053117 47.14382935 214.88293457 C50.44806542 217.53141667 54.00145307 219.73899515 57.62039185 221.92980957 C59.9125381 223.3479215 62.04492194 224.85473695 64.1711731 226.50793457 C62.405802 226.96619629 62.405802 226.96619629 60.60476685 227.43371582 C33.81659147 234.7308236 11.59375641 247.96656619 -8.8288269 266.50793457 C-9.83816284 267.40898926 -9.83816284 267.40898926 -10.8678894 268.32824707 C-18.02340246 275.07681151 -23.97244089 283.41091257 -29.6022644 291.44543457 C-30.33703003 292.45605957 -31.07179565 293.46668457 -31.8288269 294.50793457 C-32.1588269 294.50793457 -32.4888269 294.50793457 -32.8288269 294.50793457 C-32.92041372 260.39214309 -32.9908815 226.27637972 -33.03308822 192.16049183 C-33.03809095 188.13136772 -33.04326825 184.10224386 -33.04855347 180.07312012 C-33.04960271 179.27100554 -33.05065195 178.46889096 -33.05173299 177.64246988 C-33.06913078 164.6604939 -33.10066501 151.67858888 -33.13743809 138.69665498 C-33.17486494 125.37263974 -33.19706644 112.04866162 -33.20518088 98.72459596 C-33.21066505 90.50514625 -33.22797645 82.28589714 -33.26049277 74.06650918 C-33.28166221 68.42757495 -33.28802147 62.78874419 -33.28283241 57.14977313 C-33.28027436 53.89794884 -33.28634979 50.64654772 -33.3056488 47.39476967 C-33.32557676 43.86373656 -33.3207548 40.33355877 -33.30984497 36.80250549 C-33.32149634 35.78205597 -33.3331477 34.76160646 -33.34515214 33.71023422 C-33.26614007 24.23623022 -29.97559221 15.8837444 -23.3366394 8.94934082 C-16.51271025 2.64428186 -9.21778546 -0.10712099 0 0 Z " fill="#FEFEFE" transform="translate(98.82882690429688,62.4920654296875)"/>
<path d="M0 0 C0.66404097 -0.00205263 1.32808194 -0.00410527 2.01224536 -0.0062201 C4.25917237 -0.01191858 6.50603864 -0.01042936 8.75297165 -0.00901413 C10.37146887 -0.01159614 11.98996545 -0.01460884 13.60846114 -0.01801753 C18.07318045 -0.02611015 22.53788371 -0.02787836 27.00260949 -0.028615 C31.81119105 -0.03046165 36.61976419 -0.03800703 41.42834091 -0.04475021 C51.95101589 -0.05835035 62.47368706 -0.06436093 72.99636936 -0.06876087 C79.5631436 -0.07152059 86.12991636 -0.07575746 92.69668961 -0.08026505 C110.86743833 -0.09246015 129.03818587 -0.10275883 147.2089386 -0.10614014 C148.95447601 -0.10646949 148.95447601 -0.10646949 150.7352768 -0.10680549 C151.90180241 -0.10702377 153.06832801 -0.10724204 154.27020288 -0.10746694 C156.63414908 -0.10791041 158.99809527 -0.10835697 161.36204147 -0.10880661 C162.53464821 -0.10902804 163.70725495 -0.10924947 164.91539523 -0.10947761 C183.91958692 -0.11342635 202.92374028 -0.13088161 221.92791715 -0.15416613 C241.42524493 -0.17786262 260.92255347 -0.19034122 280.41989589 -0.19150805 C291.3725485 -0.1924258 302.32515118 -0.19820309 313.27779007 -0.21632767 C322.60380629 -0.23170573 331.92975716 -0.23686273 341.25578365 -0.22858956 C346.01596646 -0.22467484 350.77601759 -0.22565262 355.53618431 -0.23964691 C359.89239127 -0.25233672 364.24836693 -0.25123181 368.60457334 -0.2390562 C370.18200103 -0.23709063 371.75944483 -0.24021712 373.33684984 -0.24890056 C375.47908539 -0.25994834 377.62049817 -0.25253722 379.76271057 -0.24050903 C380.95318882 -0.24110612 382.14366707 -0.24170321 383.37022042 -0.24231839 C387.67951953 0.25129921 391.02870003 1.70238601 394.27756882 4.59627151 C398.48380679 9.89978896 399.09803115 13.38902075 398.63303757 20.13142776 C396.73976261 25.39052486 394.03520542 27.92151371 389.63303757 31.13142776 C386.25862363 32.25623241 383.70689318 32.2626338 380.14861393 32.27123547 C379.48401831 32.27418689 378.81942269 32.27713831 378.13468781 32.28017917 C375.89188231 32.28889014 373.64912827 32.29045262 371.40630722 32.29205704 C369.7883718 32.29678665 368.17043757 32.30193737 366.55250472 32.30747467 C362.09391187 32.3214002 357.63532719 32.32896984 353.17671812 32.33544767 C349.35559378 32.34181334 345.53448291 32.35188416 341.71336696 32.36200833 C329.12332549 32.39535043 316.53327583 32.4168563 303.94320467 32.43520817 C300.66581872 32.44000213 297.38843311 32.44498557 294.11104751 32.4500134 C273.76691477 32.48098178 253.4227792 32.50767222 233.07862949 32.52443218 C228.36523877 32.5283818 223.6518481 32.53238478 218.93845749 32.53645706 C217.18118256 32.5379696 217.18118256 32.5379696 215.38840713 32.5395127 C196.40498282 32.55652439 177.42168876 32.59763865 158.43832806 32.64848005 C138.95678105 32.70022736 119.47530107 32.72937058 99.9936859 32.73662907 C89.05209013 32.74129478 78.11070771 32.75608246 67.16917992 32.79637337 C57.85198282 32.83064089 48.53503755 32.84462593 39.21778104 32.83194923 C34.46326426 32.8261148 29.70928028 32.83004132 24.95484352 32.86011887 C20.60143557 32.88743489 16.24894014 32.88701819 11.89551231 32.86460841 C10.32143237 32.86137976 8.74729185 32.86828735 7.17331288 32.88640564 C-7.02505812 33.03992488 -7.02505812 33.03992488 -12.97928602 27.70519024 C-16.08407057 24.1840571 -17.23566043 21.33502947 -17.74196243 16.69392776 C-17.1519639 11.08894174 -15.62919566 6.93615188 -11.30446243 3.25642776 C-7.08726908 0.20569215 -5.18318828 0.00543005 0 0 Z " fill="#0074BA" transform="translate(403.3669624328613,94.86857223510742)"/>
<path d="M0 0 C0.66404097 -0.00205263 1.32808194 -0.00410527 2.01224536 -0.0062201 C4.25917237 -0.01191858 6.50603864 -0.01042936 8.75297165 -0.00901413 C10.37146887 -0.01159614 11.98996545 -0.01460884 13.60846114 -0.01801753 C18.07318045 -0.02611015 22.53788371 -0.02787836 27.00260949 -0.028615 C31.81119105 -0.03046165 36.61976419 -0.03800703 41.42834091 -0.04475021 C51.95101589 -0.05835035 62.47368706 -0.06436093 72.99636936 -0.06876087 C79.5631436 -0.07152059 86.12991636 -0.07575746 92.69668961 -0.08026505 C110.86743833 -0.09246015 129.03818587 -0.10275883 147.2089386 -0.10614014 C148.95447601 -0.10646949 148.95447601 -0.10646949 150.7352768 -0.10680549 C151.90180241 -0.10702377 153.06832801 -0.10724204 154.27020288 -0.10746694 C156.63414908 -0.10791041 158.99809527 -0.10835697 161.36204147 -0.10880661 C162.53464821 -0.10902804 163.70725495 -0.10924947 164.91539523 -0.10947761 C183.91958692 -0.11342635 202.92374028 -0.13088161 221.92791715 -0.15416613 C241.42524493 -0.17786262 260.92255347 -0.19034122 280.41989589 -0.19150805 C291.3725485 -0.1924258 302.32515118 -0.19820309 313.27779007 -0.21632767 C322.60380629 -0.23170573 331.92975716 -0.23686273 341.25578365 -0.22858956 C346.01596646 -0.22467484 350.77601759 -0.22565262 355.53618431 -0.23964691 C359.89239127 -0.25233672 364.24836693 -0.25123181 368.60457334 -0.2390562 C370.18200103 -0.23709063 371.75944483 -0.24021712 373.33684984 -0.24890056 C375.47908539 -0.25994834 377.62049817 -0.25253722 379.76271057 -0.24050903 C380.95318882 -0.24110612 382.14366707 -0.24170321 383.37022042 -0.24231839 C387.67951953 0.25129921 391.02870003 1.70238601 394.27756882 4.59627151 C398.48380679 9.89978896 399.09803115 13.38902075 398.63303757 20.13142776 C396.73976261 25.39052486 394.03520542 27.92151371 389.63303757 31.13142776 C386.25862363 32.25623241 383.70689318 32.2626338 380.14861393 32.27123547 C379.48401831 32.27418689 378.81942269 32.27713831 378.13468781 32.28017917 C375.89188231 32.28889014 373.64912827 32.29045262 371.40630722 32.29205704 C369.7883718 32.29678665 368.17043757 32.30193737 366.55250472 32.30747467 C362.09391187 32.3214002 357.63532719 32.32896984 353.17671812 32.33544767 C349.35559378 32.34181334 345.53448291 32.35188416 341.71336696 32.36200833 C329.12332549 32.39535043 316.53327583 32.4168563 303.94320467 32.43520817 C300.66581872 32.44000213 297.38843311 32.44498557 294.11104751 32.4500134 C273.76691477 32.48098178 253.4227792 32.50767222 233.07862949 32.52443218 C228.36523877 32.5283818 223.6518481 32.53238478 218.93845749 32.53645706 C217.18118256 32.5379696 217.18118256 32.5379696 215.38840713 32.5395127 C196.40498282 32.55652439 177.42168876 32.59763865 158.43832806 32.64848005 C138.95678105 32.70022736 119.47530107 32.72937058 99.9936859 32.73662907 C89.05209013 32.74129478 78.11070771 32.75608246 67.16917992 32.79637337 C57.85198282 32.83064089 48.53503755 32.84462593 39.21778104 32.83194923 C34.46326426 32.8261148 29.70928028 32.83004132 24.95484352 32.86011887 C20.60143557 32.88743489 16.24894014 32.88701819 11.89551231 32.86460841 C10.32143237 32.86137976 8.74729185 32.86828735 7.17331288 32.88640564 C-7.02505812 33.03992488 -7.02505812 33.03992488 -12.97928602 27.70519024 C-16.08407057 24.1840571 -17.23566043 21.33502947 -17.74196243 16.69392776 C-17.1519639 11.08894174 -15.62919566 6.93615188 -11.30446243 3.25642776 C-7.08726908 0.20569215 -5.18318828 0.00543005 0 0 Z " fill="#0074BA" transform="translate(403.3669624328613,286.8685722351074)"/>
<path d="M0 0 C0.66404097 -0.00205263 1.32808194 -0.00410527 2.01224536 -0.0062201 C4.25917237 -0.01191858 6.50603864 -0.01042936 8.75297165 -0.00901413 C10.37146887 -0.01159614 11.98996545 -0.01460884 13.60846114 -0.01801753 C18.07318045 -0.02611015 22.53788371 -0.02787836 27.00260949 -0.028615 C31.81119105 -0.03046165 36.61976419 -0.03800703 41.42834091 -0.04475021 C51.95101589 -0.05835035 62.47368706 -0.06436093 72.99636936 -0.06876087 C79.5631436 -0.07152059 86.12991636 -0.07575746 92.69668961 -0.08026505 C110.86743833 -0.09246015 129.03818587 -0.10275883 147.2089386 -0.10614014 C148.95447601 -0.10646949 148.95447601 -0.10646949 150.7352768 -0.10680549 C151.90180241 -0.10702377 153.06832801 -0.10724204 154.27020288 -0.10746694 C156.63414908 -0.10791041 158.99809527 -0.10835697 161.36204147 -0.10880661 C162.53464821 -0.10902804 163.70725495 -0.10924947 164.91539523 -0.10947761 C183.91958692 -0.11342635 202.92374028 -0.13088161 221.92791715 -0.15416613 C241.42524493 -0.17786262 260.92255347 -0.19034122 280.41989589 -0.19150805 C291.3725485 -0.1924258 302.32515118 -0.19820309 313.27779007 -0.21632767 C322.60380629 -0.23170573 331.92975716 -0.23686273 341.25578365 -0.22858956 C346.01596646 -0.22467484 350.77601759 -0.22565262 355.53618431 -0.23964691 C359.89239127 -0.25233672 364.24836693 -0.25123181 368.60457334 -0.2390562 C370.18200103 -0.23709063 371.75944483 -0.24021712 373.33684984 -0.24890056 C375.47908539 -0.25994834 377.62049817 -0.25253722 379.76271057 -0.24050903 C380.95318882 -0.24110612 382.14366707 -0.24170321 383.37022042 -0.24231839 C387.67951953 0.25129921 391.02870003 1.70238601 394.27756882 4.59627151 C398.48380679 9.89978896 399.09803115 13.38902075 398.63303757 20.13142776 C396.73976261 25.39052486 394.03520542 27.92151371 389.63303757 31.13142776 C386.25862363 32.25623241 383.70689318 32.2626338 380.14861393 32.27123547 C379.48401831 32.27418689 378.81942269 32.27713831 378.13468781 32.28017917 C375.89188231 32.28889014 373.64912827 32.29045262 371.40630722 32.29205704 C369.7883718 32.29678665 368.17043757 32.30193737 366.55250472 32.30747467 C362.09391187 32.3214002 357.63532719 32.32896984 353.17671812 32.33544767 C349.35559378 32.34181334 345.53448291 32.35188416 341.71336696 32.36200833 C329.12332549 32.39535043 316.53327583 32.4168563 303.94320467 32.43520817 C300.66581872 32.44000213 297.38843311 32.44498557 294.11104751 32.4500134 C273.76691477 32.48098178 253.4227792 32.50767222 233.07862949 32.52443218 C228.36523877 32.5283818 223.6518481 32.53238478 218.93845749 32.53645706 C217.18118256 32.5379696 217.18118256 32.5379696 215.38840713 32.5395127 C196.40498282 32.55652439 177.42168876 32.59763865 158.43832806 32.64848005 C138.95678105 32.70022736 119.47530107 32.72937058 99.9936859 32.73662907 C89.05209013 32.74129478 78.11070771 32.75608246 67.16917992 32.79637337 C57.85198282 32.83064089 48.53503755 32.84462593 39.21778104 32.83194923 C34.46326426 32.8261148 29.70928028 32.83004132 24.95484352 32.86011887 C20.60143557 32.88743489 16.24894014 32.88701819 11.89551231 32.86460841 C10.32143237 32.86137976 8.74729185 32.86828735 7.17331288 32.88640564 C-7.02505812 33.03992488 -7.02505812 33.03992488 -12.97928602 27.70519024 C-16.08407057 24.1840571 -17.23566043 21.33502947 -17.74196243 16.69392776 C-17.1519639 11.08894174 -15.62919566 6.93615188 -11.30446243 3.25642776 C-7.08726908 0.20569215 -5.18318828 0.00543005 0 0 Z " fill="#0074BA" transform="translate(403.3669624328613,190.86857223510742)"/>
<path d="M0 0 C1.35740596 -0.00461228 2.71480693 -0.01096739 4.0721975 -0.01890898 C7.79219157 -0.03558108 11.51177428 -0.02736581 15.23176968 -0.0149641 C19.24754355 -0.00590708 23.2632471 -0.01988662 27.27900696 -0.03088379 C35.14218226 -0.04866714 43.0052048 -0.04482972 50.86838608 -0.03323323 C57.25975409 -0.02419781 63.6510793 -0.02297538 70.04245186 -0.02732849 C71.40720531 -0.02824789 71.40720531 -0.02824789 72.79952954 -0.02918586 C74.64788597 -0.03046477 76.49624238 -0.03176163 78.34459878 -0.03307623 C95.67567361 -0.04448165 113.0066638 -0.03136924 130.33772475 -0.00987476 C145.20485227 0.00799318 160.07185484 0.00489455 174.9389801 -0.0135498 C192.2067014 -0.03496237 209.4743485 -0.04337985 226.74208122 -0.03110075 C228.58392432 -0.02982657 230.42576743 -0.02856908 232.26761055 -0.02732849 C233.17381222 -0.02671139 234.08001388 -0.02609429 235.01367621 -0.02545848 C241.39600122 -0.02200652 247.77827913 -0.02783069 254.16059685 -0.0372467 C261.94058511 -0.04847248 269.72041196 -0.04541461 277.50038176 -0.02412373 C281.46900902 -0.0136206 285.43736731 -0.00947872 289.40599251 -0.02272034 C293.04116732 -0.03466578 296.67582461 -0.02804684 300.31095267 -0.00681013 C302.24429191 -0.00024648 304.17766725 -0.01326108 306.11096853 -0.02703905 C313.10815111 0.03600904 317.81499236 0.64279281 323.72193909 4.50793457 C326.62587968 7.91756898 327.94486808 11.08160919 328.15943909 15.57043457 C327.38622871 22.52932794 324.637411 25.96671791 319.44068909 30.30871582 C316.12529043 32.62195988 313.16273281 32.63575235 309.25264454 32.64494896 C308.10905124 32.6500235 306.96545793 32.65509804 305.78721029 32.66032636 C304.52517473 32.66082412 303.26313917 32.66132188 301.96286011 32.66183472 C300.61303668 32.66584933 299.26321445 32.67028756 297.91339368 32.67511427 C294.19590128 32.68708567 290.47842187 32.69272953 286.76091397 32.69729543 C282.75463262 32.70324935 278.74836682 32.71485969 274.74209595 32.72558594 C265.06284491 32.75011431 255.38358873 32.7647375 245.70431617 32.77764601 C242.97091826 32.78135754 240.23752085 32.7853308 237.50412345 32.78939867 C220.53354539 32.8146342 203.56296653 32.83668937 186.59237385 32.84912682 C182.66103424 32.85205656 178.72969465 32.85501821 174.7983551 32.85803223 C173.82122845 32.85877828 172.84410179 32.85952433 171.83736523 32.86029299 C156.00638227 32.87294823 140.17551158 32.90617338 124.3445811 32.94783406 C108.09486842 32.99024662 91.84521323 33.01382104 75.59544533 33.01904738 C66.47033573 33.02246221 57.3454016 33.03422586 48.22034645 33.06715012 C40.44941565 33.09514244 32.6786963 33.10615356 24.90771899 33.09495465 C20.94309138 33.08976592 16.97890662 33.09266823 13.01434326 33.1174202 C9.38264849 33.13990461 5.75171486 33.13918001 2.12000682 33.12021632 C0.18842952 33.1160911 -1.74315232 33.13656815 -3.67461509 33.15800321 C-10.67996731 33.09397233 -16.02033589 32.46372438 -21.27806091 27.50793457 C-24.42101908 22.40062755 -25.19197403 17.37567222 -24.27806091 11.50793457 C-22.70286389 6.73546262 -20.02838949 3.72814479 -15.56399333 1.32019138 C-10.57725766 -0.45173765 -5.22844779 -0.03719507 0 0 Z " fill="#321B41" transform="translate(442.27806091308594,446.4920654296875)"/>
</svg>
