<?xml version="1.0" encoding="iso-8859-1"?>
<!-- Generator: Adobe Illustrator 19.0.0, SVG Export Plug-In . SVG Version: 6.00 Build 0)  -->
<svg version="1.1" id="Layer_1" xmlns="http://www.w3.org/2000/svg" xmlns:xlink="http://www.w3.org/1999/xlink" x="0px" y="0px"
	 viewBox="0 0 466.731 466.731" style="enable-background:new 0 0 466.731 466.731;" xml:space="preserve">
<path style="fill:#5C1700;" d="M210.777,421.555c-5.067,0-10.074-0.218-15.059-0.542v15.601h45.176v-17.077
	C231.032,420.817,220.987,421.555,210.777,421.555z"/>
<path style="fill:#733725;" d="M308.953,436.614H127.645c-16.467,0-29.809,13.35-29.809,29.816v0.301h240.941v-0.301
	C338.777,449.963,325.428,436.614,308.953,436.614z"/>
<path style="fill:#FFFFFF;" d="M388.487,37.058l-22.054,22.054c29.094,35.042,46.622,80.03,46.622,129.039
	c0,111.533-90.737,202.293-202.278,202.293c-49.016,0-93.997-17.528-129.047-46.63l-22.046,22.054
	c40.757,34.68,93.5,55.688,151.093,55.688c128.7,0,233.412-104.704,233.412-233.412C444.189,130.558,423.175,77.807,388.487,37.058z
	"/>
<path style="fill:#733725;" d="M54.678,370.867c-7.356,7.364-19.275,7.364-26.624,0c-7.349-7.349-7.349-19.268,0-26.616
	L366.802,5.517c7.349-7.356,19.275-7.356,26.616,0c7.364,7.349,7.364,19.268,0,26.616L54.678,370.867z"/>
<circle style="fill:#1565C0;" cx="210.77" cy="188.143" r="180.706"/>
<path style="fill:#42A5F5;" d="M83.003,60.361c-70.468,70.468-70.558,184.644-0.294,255.232L338.243,60.068
	C267.64-10.189,153.464-10.106,83.003,60.361z"/>
<path style="fill:#E3F2FD;" d="M333.07,321.09c1.852-1.656,3.659-3.358,5.481-5.18c1.815-1.799,3.516-3.607,5.173-5.489
	l-50.59-50.583c20.104-21.527,35.102-46.125,44.86-72.282l47.36,47.36c1.544-5.805,2.824-11.663,3.727-17.566l-45.839-45.839
	c13.184-45.914,8.034-97.589,4.789-100.849c-2.929-3.569-6.121-6.98-9.48-10.33c-3.343-3.351-6.754-6.543-10.323-9.48
	c-3.26-3.26-54.935-8.388-100.849,4.796L181.541,9.801c-5.911,0.911-11.768,2.191-17.566,3.735l47.36,47.352
	c-26.15,9.766-50.748,24.764-72.275,44.86L88.477,55.166c-1.867,1.649-3.674,3.351-5.489,5.165
	c-1.815,1.815-3.516,3.614-5.165,5.489l50.583,50.59c-24.169,25.879-40.9,56.222-50.108,88.312l-45.839-45.832
	c-1.069,6.392-1.754,12.83-2.071,19.223l43.761,43.761c-7.981,39.605-2.718,81.619-0.632,83.697
	c2.929,3.576,6.121,6.987,9.48,10.338c3.358,3.343,6.754,6.543,10.323,9.472c2.086,2.086,44.1,7.356,83.697-0.632l43.768,43.768
	c6.392-0.324,12.83-1.016,19.223-2.071l-45.839-45.839c32.098-9.224,62.434-25.939,88.313-50.116L333.07,321.09z M331.737,67.183
	c6.664,30.238,6.234,61.681-1.054,91.799l-90.744-90.744C270.056,60.941,301.499,60.535,331.737,67.183z M223.382,72.966
	l102.566,102.573c-8.892,26.601-23.469,51.689-43.686,73.442L149.932,116.659C171.692,96.442,196.773,81.865,223.382,72.966z
	 M89.817,309.095c-5.353-24.328-6.174-49.453-2.5-74.044l76.544,76.544C139.278,315.277,114.145,314.449,89.817,309.095z
	 M181.608,308.056l-90.744-90.744c7.913-32.715,24.056-63.797,48.422-90.007l132.329,132.329
	C245.398,283.992,214.324,300.136,181.608,308.056z"/>
<g>
</g>
<g>
</g>
<g>
</g>
<g>
</g>
<g>
</g>
<g>
</g>
<g>
</g>
<g>
</g>
<g>
</g>
<g>
</g>
<g>
</g>
<g>
</g>
<g>
</g>
<g>
</g>
<g>
</g>
</svg>
