<?xml version="1.0" encoding="UTF-8"?>
<svg version="1.1" xmlns="http://www.w3.org/2000/svg" width="450" height="450">
<path d="M0 0 C14.53151498 3.89237008 27.11912775 13.07830411 39 22 C39.94746094 22.69867188 40.89492188 23.39734375 41.87109375 24.1171875 C46.47054287 27.57574362 46.47054287 27.57574362 48 29 C48 29.66 48 30.32 48 31 C48.53109375 31.20625 49.0621875 31.4125 49.609375 31.625 C53.00773436 33.57961192 55.51055928 36.22123717 58.25 39 C58.80429687 39.5465625 59.35859375 40.093125 59.9296875 40.65625 C64 44.7466133 64 44.7466133 64 47 C64.66 47 65.32 47 66 47 C110.28989923 98.0325406 111 152.09719398 111 219 C-22.98 219 -156.96 219 -295 219 C-296.03948749 215.88153754 -296.13902606 213.68104487 -296.16113281 210.40893555 C-296.17074036 209.25890549 -296.1803479 208.10887543 -296.19024658 206.92399597 C-296.19449646 205.67419449 -296.19874634 204.42439301 -296.203125 203.13671875 C-296.20882507 201.83918167 -296.21452515 200.54164459 -296.22039795 199.20478821 C-296.23091813 196.44324352 -296.23674957 193.68172792 -296.24023438 190.92016602 C-296.2445664 188.13226856 -296.25824448 185.3446898 -296.28125 182.55688477 C-296.44967344 161.72069786 -295.81933949 141.27344461 -290.1875 121.0625 C-289.92888184 120.10851318 -289.67026367 119.15452637 -289.40380859 118.17163086 C-275.77431201 69.30439584 -241.7553527 30.21731183 -198.25 5.1875 C-197.48743896 4.73640869 -196.72487793 4.28531738 -195.93920898 3.82055664 C-195.22192627 3.41957764 -194.50464355 3.01859863 -193.765625 2.60546875 C-193.13430664 2.24606201 -192.50298828 1.88665527 -191.85253906 1.51635742 C-190 1 -190 1 -187.87915039 1.78637695 C-185.59260798 3.26310845 -184.01475002 4.98173568 -182.1875 7 C-160.6891835 28.84902313 -126.80202848 38.68951489 -96.85253906 39.35131836 C-62.97049897 39.59992334 -29.85827875 30.58635953 -5.171875 6.3203125 C-3.11198528 4.25746487 -1.63762582 2.45643873 0 0 Z " fill="#FEFE00" transform="translate(311,230)"/>
<path d="M0 0 C1.26328125 0.32742187 2.5265625 0.65484375 3.828125 0.9921875 C19.59953483 5.66899085 34.93569356 13.80464696 47 25 C48.23169922 26.04027344 48.23169922 26.04027344 49.48828125 27.1015625 C54.32381754 31.23771329 58.62913428 35.66699014 62.75 40.5 C63.40355469 41.26425293 63.40355469 41.26425293 64.0703125 42.04394531 C76.98874466 57.57542397 85.03205774 76.30640396 89 96 C89.24363281 97.19753906 89.48726562 98.39507812 89.73828125 99.62890625 C95.18972839 131.63298025 86.89802327 164.82443561 68.34692383 191.24853516 C50.56957879 215.6623912 25.33575333 232.80238022 -4 240 C-5.26650391 240.32097656 -5.26650391 240.32097656 -6.55859375 240.6484375 C-37.22919792 247.98386796 -71.11149001 241.67006008 -97.921875 225.58984375 C-127.86964798 206.88295201 -146.61751385 179.01695522 -155 145 C-158.68247394 128.8183597 -158.4116761 110.23487249 -155 94 C-154.75507813 92.82953125 -154.51015625 91.6590625 -154.2578125 90.453125 C-149.01750181 68.47164477 -137.8393902 48.97574076 -122 33 C-121.15308594 32.10410156 -120.30617187 31.20820312 -119.43359375 30.28515625 C-103.37008989 13.56805129 -81.41980191 3.04688182 -59 -2 C-57.55367187 -2.3403125 -57.55367187 -2.3403125 -56.078125 -2.6875 C-37.64567355 -6.27435542 -18.02641728 -4.84449787 0 0 Z " fill="#FDFD00" transform="translate(250,8)"/>
<path d="M0 0 C2.02580323 1.60667153 3.38189504 3.29159256 4.8125 5.4375 C4.27625 5.128125 3.74 4.81875 3.1875 4.5 C0.4140043 3.25922561 -2.18792837 2.8465325 -5.1875 2.4375 C-5.5175 3.4275 -5.8475 4.4175 -6.1875 5.4375 C-8.4975 5.7675 -10.8075 6.0975 -13.1875 6.4375 C-4.33360144 -1.11435466 -4.33360144 -1.11435466 0 0 Z " fill="#C7C700" transform="translate(123.1875,231.5625)"/>
<path d="M0 0 C7.61490087 2.82380331 13.92164794 7.70092385 20 13 C16.63596525 13 15.59907083 12.38119947 12.8125 10.625 C11.73935547 9.96371094 11.73935547 9.96371094 10.64453125 9.2890625 C10.10183594 8.86367188 9.55914062 8.43828125 9 8 C9 7.34 9 6.68 9 6 C8.2575 5.7525 7.515 5.505 6.75 5.25 C3.79875938 3.90852699 2.15185026 2.39094474 0 0 Z " fill="#C7C700" transform="translate(277,20)"/>
<path d="M0 0 C2.05449993 3.0817499 2.74475809 5.3095757 3.625 8.875 C3.88539063 9.90367188 4.14578125 10.93234375 4.4140625 11.9921875 C4.95301116 14.75879061 5.11394368 17.19284196 5 20 C1.36525801 13.2897071 -0.40989308 7.65133742 0 0 Z " fill="#CBCB00" transform="translate(334,89)"/>
<path d="M0 0 C1.5 1.375 1.5 1.375 3 3 C3 3.66 3 4.32 3 5 C3.66 5 4.32 5 5 5 C5.2475 5.94875 5.495 6.8975 5.75 7.875 C6.6857077 11.08693191 6.6857077 11.08693191 9.125 12.375 C9.74375 12.58125 10.3625 12.7875 11 13 C10.67 14.32 10.34 15.64 10 17 C8.69858519 15.29908111 7.40927835 13.58889459 6.125 11.875 C5.40570313 10.92367187 4.68640625 9.97234375 3.9453125 8.9921875 C2.01788981 6.02751726 0.95529222 3.38877345 0 0 Z " fill="#CBCB00" transform="translate(107,184)"/>
<path d="M0 0 C-1.47721422 3.45201639 -3.43794001 5.64961936 -6.125 8.25 C-6.84945313 8.95640625 -7.57390625 9.6628125 -8.3203125 10.390625 C-8.87460937 10.92171875 -9.42890625 11.4528125 -10 12 C-10.66 11.67 -11.32 11.34 -12 11 C-10.66666667 9.33333333 -9.33333333 7.66666667 -8 6 C-7.29875 5.0925 -6.5975 4.185 -5.875 3.25 C-3.87862943 0.85435532 -3.11405296 0 0 0 Z " fill="#CDCD00" transform="translate(310,208)"/>
<path d="M0 0 C3.40198926 4.04998722 6 8.63626649 6 14 C5.01 13.67 4.02 13.34 3 13 C2.67 10.69 2.34 8.38 2 6 C1.34 6 0.68 6 0 6 C0 4.02 0 2.04 0 0 Z " fill="#D7D700" transform="translate(328,74)"/>
<path d="M0 0 C0.66 0.33 1.32 0.66 2 1 C1.278125 1.556875 0.55625 2.11375 -0.1875 2.6875 C-3.08111122 4.95415759 -3.08111122 4.95415759 -5.5625 7.8125 C-6.366875 8.534375 -7.17125 9.25625 -8 10 C-9.32 9.67 -10.64 9.34 -12 9 C-8.04 6.03 -4.08 3.06 0 0 Z " fill="#CFCF00" transform="translate(298,243)"/>
<path d="M0 0 C0.33 0 0.66 0 1 0 C1.50423019 5.29441695 0.18923033 7.81413519 -3 12 C-4.21386936 8.35839192 -3.6674695 7.66834531 -2.0625 4.3125 C-1.49208984 3.10013672 -1.49208984 3.10013672 -0.91015625 1.86328125 C-0.60980469 1.24839844 -0.30945313 0.63351563 0 0 Z " fill="#D0D000" transform="translate(105,73)"/>
<path d="M0 0 C-3.40858586 3.40858586 -8.32201465 3.93008394 -13 4.125 C-13.66 4.08375 -14.32 4.0425 -15 4 C-12.38668086 2.58445213 -9.69281871 1.41868688 -6.9375 0.3125 C-6.26589844 0.04050781 -5.59429687 -0.23148437 -4.90234375 -0.51171875 C-3 -1 -3 -1 0 0 Z " fill="#C7C701" transform="translate(272,261)"/>
<path d="M0 0 C0.99 0.33 1.98 0.66 3 1 C4.1875 4.0625 4.1875 4.0625 5 7 C4.34 7.66 3.68 8.32 3 9 C0 3.375 0 3.375 0 0 Z " fill="#D7D700" transform="translate(103,175)"/>
<path d="M0 0 C3.19199167 2.41556126 5.74716687 4.68003538 8 8 C7.67 8.66 7.34 9.32 7 10 C4.0625 8.375 4.0625 8.375 1 6 C0.125 2.75 0.125 2.75 0 0 Z " fill="#CDCD00" transform="translate(310,47)"/>
<path d="M0 0 C2.96404505 2.80804268 5.44499019 5.18315774 7 9 C5 9 5 9 3 7.0625 C2.34 6.381875 1.68 5.70125 1 5 C0.34 4.67 -0.32 4.34 -1 4 C-0.67 2.68 -0.34 1.36 0 0 Z " fill="#CDCD00" transform="translate(379,281)"/>
<path d="M0 0 C-3.83325617 2.70582788 -6.32538149 3.32613618 -11 3 C-3.71428571 -1.85714286 -3.71428571 -1.85714286 0 0 Z " fill="#C6C600" transform="translate(182,10)"/>
</svg>
