<?xml version="1.0" encoding="UTF-8"?>
<svg version="1.1" xmlns="http://www.w3.org/2000/svg" width="512" height="512">
<path d="M0 0 C4.47111145 3.86290879 7.91424282 8.08865536 9 14 C9 16.97 9 19.94 9 23 C59.16 23 109.32 23 161 23 C161 19.7 161 16.4 161 13 C163.56422284 6.02531387 167.34518075 1.42820295 173.984375 -2.03515625 C180.25131848 -4.6463827 185.55873111 -4.68925302 192 -2.5 C198.29835383 0.19792291 201.94943119 4.61210371 205.4375 10.375 C206.01603598 13.07483456 206.05519357 15.40781727 206.03515625 18.1640625 C206.02754272 19.52072021 206.02754272 19.52072021 206.01977539 20.90478516 C206.01324951 21.59620605 206.00672363 22.28762695 206 23 C207.78286407 22.98667633 207.78286407 22.98667633 209.60174561 22.9730835 C220.84108856 22.89175141 232.08037125 22.83191672 243.31994247 22.79275131 C249.09737226 22.77193859 254.87456314 22.74373671 260.65185547 22.69824219 C266.23453345 22.65455879 271.81698262 22.63081547 277.39981842 22.62049103 C279.52232714 22.6131399 281.64482434 22.59878553 283.7672348 22.57707977 C299.25410084 22.42509563 311.24707722 23.38910167 324 33 C324.86625 33.5775 325.7325 34.155 326.625 34.75 C335.75194676 43.39658114 341.27367295 55.29012474 341.62361908 67.84987164 C341.6666792 70.81995267 341.64678256 73.78732441 341.62145996 76.75749207 C341.62579695 78.41976147 341.63232015 80.08202635 341.64082003 81.74427968 C341.65771274 86.27923027 341.64369985 90.81362362 341.62430525 95.34854448 C341.60881324 100.25177774 341.62229674 105.15494558 341.63204956 110.05818176 C341.64654467 119.64979346 341.63437443 129.24119283 341.61293632 138.83278438 C341.58887783 150.00847354 341.59064362 161.18411455 341.59324223 172.35982386 C341.59692892 192.30136863 341.57613549 212.24281359 341.54199219 232.18432617 C341.50888974 251.52517213 341.49473658 270.86591339 341.50097656 290.20678711 C341.50774314 311.28340197 341.50527375 332.35997303 341.48561716 353.43658143 C341.48457768 354.55140897 341.48353819 355.66623651 341.4824672 356.8148467 C341.48037635 359.05375307 341.47826538 361.29265942 341.47613403 363.53156575 C341.46924433 371.31814315 341.46856812 379.10470704 341.47001648 386.89128685 C341.4714573 396.3805337 341.46174462 405.86969528 341.43807012 415.35891386 C341.42622453 420.19863985 341.41907548 425.03824712 341.42490768 429.87798691 C341.43009198 434.31108573 341.42134733 438.74393405 341.40163308 443.17699007 C341.39690651 444.77770404 341.3971764 446.37844251 341.40304345 447.9791527 C341.45236094 462.8778894 339.05296646 474.2849608 328.671875 485.51953125 C317.73400194 495.88987316 305.48431776 500.12043408 290.51359844 500.12863445 C289.42710624 500.13126401 289.42710624 500.13126401 288.3186647 500.13394669 C285.89672454 500.13859069 283.47484484 500.13614532 281.05290222 500.13371277 C279.29682231 500.13558154 277.54074281 500.13788251 275.78466398 500.14057809 C270.96271037 500.14669422 266.1407741 500.14656272 261.3188175 500.14538372 C256.11692562 500.14517966 250.91503931 500.15069889 245.71315002 500.15544128 C235.52321637 500.16374727 225.33328851 500.1664961 215.14335176 500.16705366 C206.86080354 500.16752883 198.57825723 500.1695836 190.29570961 500.17275429 C166.81393521 500.18156056 143.33216539 500.18617368 119.85038932 500.18542381 C118.58451427 500.18538386 117.31863921 500.1853439 116.0144043 500.18530273 C114.11327388 500.18524141 114.11327388 500.18524141 112.17373679 500.18517885 C91.63030851 500.18477234 71.08689856 500.19434319 50.54347559 500.2084411 C29.45039292 500.22280203 8.35731919 500.22971145 -12.7357685 500.22884732 C-24.57825125 500.22851527 -36.42071478 500.23126623 -48.26319313 500.24202538 C-58.34544051 500.25112662 -68.42765996 500.25330869 -78.50990967 500.24651595 C-83.6533685 500.24324892 -88.79677375 500.24320074 -93.94022751 500.2518692 C-98.65106424 500.25972688 -103.36180482 500.25831021 -108.07263919 500.24958507 C-109.77448129 500.24804848 -111.47633055 500.24987222 -113.17816422 500.25544515 C-130.5196525 500.30845983 -144.93747127 498.40391383 -158 486 C-166.16586192 477.05346294 -171.24024644 467.20191094 -171.26006222 454.89679527 C-171.26386789 454.2138869 -171.26767356 453.53097852 -171.27159455 452.82737595 C-171.2818751 450.54624682 -171.27801078 448.26536816 -171.27415466 445.98422241 C-171.278609 444.32927382 -171.28392368 442.67432737 -171.29002339 441.01938403 C-171.30419049 436.4768483 -171.30586692 431.93438104 -171.30542648 427.39182639 C-171.30707583 422.49048179 -171.32014459 417.58916531 -171.33161926 412.68783569 C-171.35445951 401.97284342 -171.36238886 391.25787096 -171.36744571 380.54285765 C-171.37070393 373.85019988 -171.37722718 367.15754786 -171.3844471 360.46489334 C-171.40401193 341.92851891 -171.42041677 323.39214981 -171.42332363 304.85576439 C-171.4235112 303.66980082 -171.42369877 302.48383725 -171.42389202 301.26193539 C-171.42425827 298.85777895 -171.42462197 296.4536225 -171.42498314 294.04946606 C-171.42516595 292.85606706 -171.42534876 291.66266807 -171.42553711 290.43310547 C-171.42571766 289.23824688 -171.42589821 288.04338828 -171.42608423 286.81232186 C-171.42962536 267.45425254 -171.45664453 248.0962945 -171.494035 228.73826377 C-171.5321313 208.85540524 -171.55148121 188.9726019 -171.55178314 169.08970606 C-171.55236742 157.92951336 -171.56084043 146.7694534 -171.58978081 135.60929489 C-171.61431235 126.1057004 -171.62156555 116.60228706 -171.60653328 107.09866945 C-171.59937165 102.25244003 -171.60018971 97.4065682 -171.62294388 92.56037903 C-171.64360389 88.11751704 -171.64086831 83.67528597 -171.62006903 79.23243029 C-171.61658753 77.63147193 -171.62142699 76.03046739 -171.63577347 74.42956953 C-171.75980763 59.62605697 -168.2283825 47.16772375 -158 36 C-149.99048784 28.87776913 -139.86916398 22.94251852 -128.87445068 22.84178162 C-128.06119324 22.8319928 -127.24793579 22.82220398 -126.41003418 22.81211853 C-125.08509949 22.80348534 -125.08509949 22.80348534 -123.73339844 22.79467773 C-122.79647156 22.78477814 -121.85954468 22.77487854 -120.89422607 22.76467896 C-117.79930137 22.73310746 -114.70436131 22.70832365 -111.609375 22.68359375 C-109.46274417 22.66302047 -107.31611735 22.6420239 -105.16949463 22.62062073 C-99.52082575 22.56543869 -93.87212054 22.51601231 -88.22338867 22.46777344 C-82.45878874 22.41753021 -76.69424154 22.36185886 -70.9296875 22.30664062 C-59.61983671 22.19910634 -48.30994014 22.09765082 -37 22 C-36.87592773 21.17363037 -36.75185547 20.34726074 -36.62402344 19.49584961 C-36.45418945 18.41311768 -36.28435547 17.33038574 -36.109375 16.21484375 C-35.94405273 15.14097412 -35.77873047 14.06710449 -35.60839844 12.96069336 C-34.27740317 6.48357472 -30.23848646 2.7273846 -25 -1 C-16.33530668 -5.41175831 -8.40740093 -4.82347681 0 0 Z " fill="#FEFEFE" transform="translate(171,8)"/>
<path d="M0 0 C4.47111145 3.86290879 7.91424282 8.08865536 9 14 C9 16.97 9 19.94 9 23 C59.16 23 109.32 23 161 23 C161 19.7 161 16.4 161 13 C163.56422284 6.02531387 167.34518075 1.42820295 173.984375 -2.03515625 C180.25131848 -4.6463827 185.55873111 -4.68925302 192 -2.5 C198.29835383 0.19792291 201.94943119 4.61210371 205.4375 10.375 C206.01603598 13.07483456 206.05519357 15.40781727 206.03515625 18.1640625 C206.02754272 19.52072021 206.02754272 19.52072021 206.01977539 20.90478516 C206.01324951 21.59620605 206.00672363 22.28762695 206 23 C207.78286407 22.98667633 207.78286407 22.98667633 209.60174561 22.9730835 C220.84108856 22.89175141 232.08037125 22.83191672 243.31994247 22.79275131 C249.09737226 22.77193859 254.87456314 22.74373671 260.65185547 22.69824219 C266.23453345 22.65455879 271.81698262 22.63081547 277.39981842 22.62049103 C279.52232714 22.6131399 281.64482434 22.59878553 283.7672348 22.57707977 C299.25410084 22.42509563 311.24707722 23.38910167 324 33 C324.86625 33.5775 325.7325 34.155 326.625 34.75 C335.75194676 43.39658114 341.27367295 55.29012474 341.62361908 67.84987164 C341.6666792 70.81995267 341.64678256 73.78732441 341.62145996 76.75749207 C341.62579695 78.41976147 341.63232015 80.08202635 341.64082003 81.74427968 C341.65771274 86.27923027 341.64369985 90.81362362 341.62430525 95.34854448 C341.60881324 100.25177774 341.62229674 105.15494558 341.63204956 110.05818176 C341.64654467 119.64979346 341.63437443 129.24119283 341.61293632 138.83278438 C341.58887783 150.00847354 341.59064362 161.18411455 341.59324223 172.35982386 C341.59692892 192.30136863 341.57613549 212.24281359 341.54199219 232.18432617 C341.50888974 251.52517213 341.49473658 270.86591339 341.50097656 290.20678711 C341.50774314 311.28340197 341.50527375 332.35997303 341.48561716 353.43658143 C341.48457768 354.55140897 341.48353819 355.66623651 341.4824672 356.8148467 C341.48037635 359.05375307 341.47826538 361.29265942 341.47613403 363.53156575 C341.46924433 371.31814315 341.46856812 379.10470704 341.47001648 386.89128685 C341.4714573 396.3805337 341.46174462 405.86969528 341.43807012 415.35891386 C341.42622453 420.19863985 341.41907548 425.03824712 341.42490768 429.87798691 C341.43009198 434.31108573 341.42134733 438.74393405 341.40163308 443.17699007 C341.39690651 444.77770404 341.3971764 446.37844251 341.40304345 447.9791527 C341.45236094 462.8778894 339.05296646 474.2849608 328.671875 485.51953125 C317.73400194 495.88987316 305.48431776 500.12043408 290.51359844 500.12863445 C289.42710624 500.13126401 289.42710624 500.13126401 288.3186647 500.13394669 C285.89672454 500.13859069 283.47484484 500.13614532 281.05290222 500.13371277 C279.29682231 500.13558154 277.54074281 500.13788251 275.78466398 500.14057809 C270.96271037 500.14669422 266.1407741 500.14656272 261.3188175 500.14538372 C256.11692562 500.14517966 250.91503931 500.15069889 245.71315002 500.15544128 C235.52321637 500.16374727 225.33328851 500.1664961 215.14335176 500.16705366 C206.86080354 500.16752883 198.57825723 500.1695836 190.29570961 500.17275429 C166.81393521 500.18156056 143.33216539 500.18617368 119.85038932 500.18542381 C118.58451427 500.18538386 117.31863921 500.1853439 116.0144043 500.18530273 C114.11327388 500.18524141 114.11327388 500.18524141 112.17373679 500.18517885 C91.63030851 500.18477234 71.08689856 500.19434319 50.54347559 500.2084411 C29.45039292 500.22280203 8.35731919 500.22971145 -12.7357685 500.22884732 C-24.57825125 500.22851527 -36.42071478 500.23126623 -48.26319313 500.24202538 C-58.34544051 500.25112662 -68.42765996 500.25330869 -78.50990967 500.24651595 C-83.6533685 500.24324892 -88.79677375 500.24320074 -93.94022751 500.2518692 C-98.65106424 500.25972688 -103.36180482 500.25831021 -108.07263919 500.24958507 C-109.77448129 500.24804848 -111.47633055 500.24987222 -113.17816422 500.25544515 C-130.5196525 500.30845983 -144.93747127 498.40391383 -158 486 C-166.16586192 477.05346294 -171.24024644 467.20191094 -171.26006222 454.89679527 C-171.26386789 454.2138869 -171.26767356 453.53097852 -171.27159455 452.82737595 C-171.2818751 450.54624682 -171.27801078 448.26536816 -171.27415466 445.98422241 C-171.278609 444.32927382 -171.28392368 442.67432737 -171.29002339 441.01938403 C-171.30419049 436.4768483 -171.30586692 431.93438104 -171.30542648 427.39182639 C-171.30707583 422.49048179 -171.32014459 417.58916531 -171.33161926 412.68783569 C-171.35445951 401.97284342 -171.36238886 391.25787096 -171.36744571 380.54285765 C-171.37070393 373.85019988 -171.37722718 367.15754786 -171.3844471 360.46489334 C-171.40401193 341.92851891 -171.42041677 323.39214981 -171.42332363 304.85576439 C-171.4235112 303.66980082 -171.42369877 302.48383725 -171.42389202 301.26193539 C-171.42425827 298.85777895 -171.42462197 296.4536225 -171.42498314 294.04946606 C-171.42516595 292.85606706 -171.42534876 291.66266807 -171.42553711 290.43310547 C-171.42571766 289.23824688 -171.42589821 288.04338828 -171.42608423 286.81232186 C-171.42962536 267.45425254 -171.45664453 248.0962945 -171.494035 228.73826377 C-171.5321313 208.85540524 -171.55148121 188.9726019 -171.55178314 169.08970606 C-171.55236742 157.92951336 -171.56084043 146.7694534 -171.58978081 135.60929489 C-171.61431235 126.1057004 -171.62156555 116.60228706 -171.60653328 107.09866945 C-171.59937165 102.25244003 -171.60018971 97.4065682 -171.62294388 92.56037903 C-171.64360389 88.11751704 -171.64086831 83.67528597 -171.62006903 79.23243029 C-171.61658753 77.63147193 -171.62142699 76.03046739 -171.63577347 74.42956953 C-171.75980763 59.62605697 -168.2283825 47.16772375 -158 36 C-149.99048784 28.87776913 -139.86916398 22.94251852 -128.87445068 22.84178162 C-128.06119324 22.8319928 -127.24793579 22.82220398 -126.41003418 22.81211853 C-125.08509949 22.80348534 -125.08509949 22.80348534 -123.73339844 22.79467773 C-122.79647156 22.78477814 -121.85954468 22.77487854 -120.89422607 22.76467896 C-117.79930137 22.73310746 -114.70436131 22.70832365 -111.609375 22.68359375 C-109.46274417 22.66302047 -107.31611735 22.6420239 -105.16949463 22.62062073 C-99.52082575 22.56543869 -93.87212054 22.51601231 -88.22338867 22.46777344 C-82.45878874 22.41753021 -76.69424154 22.36185886 -70.9296875 22.30664062 C-59.61983671 22.19910634 -48.30994014 22.09765082 -37 22 C-36.87592773 21.17363037 -36.75185547 20.34726074 -36.62402344 19.49584961 C-36.45418945 18.41311768 -36.28435547 17.33038574 -36.109375 16.21484375 C-35.94405273 15.14097412 -35.77873047 14.06710449 -35.60839844 12.96069336 C-34.27740317 6.48357472 -30.23848646 2.7273846 -25 -1 C-16.33530668 -5.41175831 -8.40740093 -4.82347681 0 0 Z M-156 195 C-156.12375 237.61125 -156.2475 280.2225 -156.375 324.125 C-156.42962402 337.57137207 -156.48424805 351.01774414 -156.54052734 364.87158203 C-156.56059601 376.94224088 -156.56059601 376.94224088 -156.57266235 389.01290894 C-156.57824425 394.38245646 -156.6001958 399.75163878 -156.63345337 405.12106323 C-156.67586914 411.97928705 -156.68692358 418.83698821 -156.67843366 425.69533515 C-156.68020785 428.20658694 -156.69203057 430.71785755 -156.71529078 433.22900224 C-156.85421724 448.96370287 -156.74981475 461.80227469 -145.75 474.0625 C-138.57396958 480.59390396 -130.69203055 484.11946284 -121.02699375 484.13701439 C-120.30956856 484.13966622 -119.59214337 484.14231804 -118.85297802 484.14505023 C-116.43041978 484.15275669 -114.00791211 484.15330292 -111.58534241 484.15390015 C-109.8382644 484.1579139 -108.09118733 484.16235198 -106.34411138 484.1671797 C-101.5283886 484.1791611 -96.71267584 484.1847973 -91.89694107 484.18936086 C-86.70857005 484.19531115 -81.52021106 484.20692255 -76.33184814 484.21765137 C-63.79307525 484.24219048 -51.25429837 484.25680575 -38.71550885 484.26971143 C-35.1743834 484.27342259 -31.63325834 484.27739589 -28.09213328 484.2814641 C-6.10675779 484.30670236 15.87861831 484.32875764 37.86400509 484.34119225 C42.95824625 484.344122 48.0524874 484.34708365 53.14672852 484.35009766 C54.41289556 484.35084371 55.67906261 484.35158976 56.98359836 484.35235842 C77.49039847 484.36500942 97.99711182 484.39822794 118.50387137 484.43989949 C139.55389588 484.48232452 160.60387598 484.50588804 181.65394312 484.51111281 C193.47424391 484.51452652 205.29440918 484.52627696 217.11466789 484.55921555 C227.18271582 484.58722512 237.25060047 484.59821139 247.31868433 484.58702008 C252.45437308 484.5818356 257.58971994 484.58470679 262.72535896 484.60948563 C267.43168485 484.63200312 272.13742374 484.63121871 276.84376008 484.61228175 C278.54172732 484.60948524 280.23973458 484.61506082 281.93763756 484.63009469 C295.77741417 484.74509389 306.59324714 482.35456656 316.87109375 472.47265625 C320.13836898 468.67782098 322.16141837 464.6270971 324 460 C324.34437544 459.34232038 324.68875088 458.68464075 325.04356194 458.00703144 C326.46863241 453.52662451 326.2678237 449.20205049 326.24050903 444.52812195 C326.24222107 443.46469574 326.24393311 442.40126953 326.24569702 441.30561829 C326.24901155 437.72540621 326.2379535 434.14538057 326.22705078 430.56518555 C326.22643824 427.96137657 326.22670488 425.35756726 326.2277813 422.75375843 C326.22884444 416.48040091 326.21961152 410.20710067 326.20677864 403.93375786 C326.19237859 396.6770691 326.19078914 389.42040038 326.18920898 382.16369629 C326.17870832 363.00495512 326.1507861 343.8462267 326.125 324.6875 C326.08375 281.890625 326.0425 239.09375 326 195 C166.94 195 7.88 195 -156 195 Z " fill="#F03B31" transform="translate(171,8)"/>
<path d="M0 0 C4.95 0 9.9 0 15 0 C14.99962297 1.3270653 14.99924595 2.65413059 14.9988575 4.02140999 C14.99123404 35.56518241 15.01458988 67.10876573 15.07579029 98.65247566 C15.0833058 102.53996383 15.09056139 106.42745245 15.09765625 110.31494141 C15.099073 111.0888289 15.10048975 111.8627164 15.10194944 112.66005503 C15.12423201 125.16981509 15.12548644 137.67949257 15.11888863 150.18926693 C15.11258337 163.03765054 15.12906385 175.88586125 15.16643608 188.73419273 C15.188763 196.65425054 15.19358645 204.57391356 15.17559664 212.49398409 C15.16368225 218.58021753 15.18356082 224.66593615 15.21495247 230.75211716 C15.22288897 233.2392388 15.22071413 235.72641761 15.20739174 238.21351624 C15.13253831 253.48516058 15.13895072 266.55893653 25.75 278.5625 C32.72549031 284.82565701 40.67529133 288.12012989 49.97300625 288.13701439 C50.69043144 288.13966622 51.40785663 288.14231804 52.14702198 288.14505023 C54.56958022 288.15275669 56.99208789 288.15330292 59.41465759 288.15390015 C61.1617356 288.1579139 62.90881267 288.16235198 64.65588862 288.1671797 C69.4716114 288.1791611 74.28732416 288.1847973 79.10305893 288.18936086 C84.29142995 288.19531115 89.47978894 288.20692255 94.66815186 288.21765137 C107.20692475 288.24219048 119.74570163 288.25680575 132.28449115 288.26971143 C135.8256166 288.27342259 139.36674166 288.27739589 142.90786672 288.2814641 C164.89324221 288.30670236 186.87861831 288.32875764 208.86400509 288.34119225 C213.95824625 288.344122 219.0524874 288.34708365 224.14672852 288.35009766 C225.41289556 288.35084371 226.67906261 288.35158976 227.98359836 288.35235842 C248.49039847 288.36500942 268.99711182 288.39822794 289.50387137 288.43989949 C310.55389588 288.48232452 331.60387598 288.50588804 352.65394312 288.51111281 C364.47424391 288.51452652 376.29440918 288.52627696 388.11466789 288.55921555 C398.18271582 288.58722512 408.25060047 288.59821139 418.31868433 288.58702008 C423.45437308 288.5818356 428.58971994 288.58470679 433.72535896 288.60948563 C438.43168485 288.63200312 443.13742374 288.63121871 447.84376008 288.61228175 C449.54172732 288.60948524 451.23973458 288.61506082 452.93763756 288.63009469 C466.18937104 288.74020765 477.15555608 286.75609853 487.09375 277.25 C490.23450987 273.5428736 492.1818945 269.47589827 494 265 C494.34431753 264.34159528 494.68863506 263.68319056 495.04338646 263.00483418 C496.46849353 258.52840743 496.28753623 254.19898657 496.2784729 249.52812195 C496.2871615 247.92912834 496.2871615 247.92912834 496.29602563 246.29783183 C496.3130522 242.72025256 496.31590447 239.14280209 496.31884766 235.56518555 C496.32814398 233.00290103 496.33831221 230.44061955 496.34928894 227.87834167 C496.37096835 222.35902991 496.38657232 216.83975397 496.39665604 211.32040977 C496.41124585 203.34039226 496.43678351 195.36043928 496.46498732 187.38045964 C496.51044983 174.43326297 496.54706687 161.48605701 496.578125 148.53881836 C496.60831276 135.96230436 496.64266407 123.3858131 496.68261719 110.80932617 C496.68507874 110.03402094 496.68754028 109.25871571 496.69007643 108.45991638 C496.70245107 104.5704108 496.7149076 100.6809055 496.72740483 96.79140031 C496.83096452 64.5276309 496.92002314 32.26383676 497 0 C501.95 0 506.9 0 512 0 C512.06847345 33.84399274 512.12154743 67.68796621 512.15319599 101.53201287 C512.156948 105.52980557 512.16083098 109.52759813 512.16479492 113.52539062 C512.16558185 114.32126166 512.16636878 115.1171327 512.16717956 115.93712105 C512.18022487 128.81494074 512.20387389 141.69272016 512.23145839 154.57051598 C512.25953694 167.78944681 512.27618144 181.00835659 512.28226548 194.22731602 C512.28637685 202.38069966 512.29935095 210.53396945 512.3237494 218.68731804 C512.33963685 224.28233144 512.34439356 229.87728618 512.34050413 235.47232048 C512.33858724 238.69787244 512.34312837 241.9231846 512.35761642 245.14871025 C512.37258299 248.6529983 512.36893797 252.15680262 512.36076355 255.66110229 C512.36950207 256.67085708 512.3782406 257.68061186 512.38724393 258.72096527 C512.30886489 271.18647306 508.16015954 281.33338439 499.671875 290.51953125 C488.73400194 300.88987316 476.48431776 305.12043408 461.51359844 305.12863445 C460.42710624 305.13126401 460.42710624 305.13126401 459.3186647 305.13394669 C456.89672454 305.13859069 454.47484484 305.13614532 452.05290222 305.13371277 C450.29682231 305.13558154 448.54074281 305.13788251 446.78466398 305.14057809 C441.96271037 305.14669422 437.1407741 305.14656272 432.3188175 305.14538372 C427.11692562 305.14517966 421.91503931 305.15069889 416.71315002 305.15544128 C406.52321637 305.16374727 396.33328851 305.1664961 386.14335176 305.16705366 C377.86080354 305.16752883 369.57825723 305.1695836 361.29570961 305.17275429 C337.81393521 305.18156056 314.33216539 305.18617368 290.85038932 305.18542381 C289.58451427 305.18538386 288.31863921 305.1853439 287.0144043 305.18530273 C285.11327388 305.18524141 285.11327388 305.18524141 283.17373679 305.18517885 C262.63030851 305.18477234 242.08689856 305.19434319 221.54347559 305.2084411 C200.45039292 305.22280203 179.35731919 305.22971145 158.2642315 305.22884732 C146.42174875 305.22851527 134.57928522 305.23126623 122.73680687 305.24202538 C112.65455949 305.25112662 102.57234004 305.25330869 92.49009033 305.24651595 C87.3466315 305.24324892 82.20322625 305.24320074 77.05977249 305.2518692 C72.34893576 305.25972688 67.63819518 305.25831021 62.92736081 305.24958507 C61.22551871 305.24804848 59.52366945 305.24987222 57.82183578 305.25544515 C40.4803475 305.30845983 26.06252873 303.40391383 13 291 C3.41258823 280.49600967 -0.32091196 270.07855956 -0.24050903 256.02186584 C-0.24221788 254.92557639 -0.24392673 253.82928694 -0.24568737 252.69977659 C-0.24897781 249.03163648 -0.23798571 245.36367987 -0.22705078 241.69555664 C-0.22648657 239.06401575 -0.22680342 236.43247455 -0.22793579 233.80093384 C-0.22898301 228.13812936 -0.22272347 222.47537107 -0.21146011 216.8125782 C-0.19518595 208.62520057 -0.18999515 200.43784522 -0.18748413 192.25045317 C-0.18311003 178.96602839 -0.16980868 165.68162822 -0.15087891 152.3972168 C-0.13251272 139.4948743 -0.11835983 126.59253849 -0.10986328 113.69018555 C-0.10933783 112.89449679 -0.10881239 112.09880804 -0.10827102 111.2790075 C-0.10566089 107.28715496 -0.10313348 103.29530237 -0.10064721 99.30344975 C-0.0799236 66.20228176 -0.04455686 33.10114458 0 0 Z " fill="#818181" transform="translate(0,203)"/>
<path d="M0 0 C0.71303284 -0.01203461 1.42606567 -0.02406921 2.16070557 -0.03646851 C16.51175456 -0.2439849 32.40246791 1.52177174 43.375 11.6875 C51.59657956 20.48964668 52.9798046 31.31219523 52.9375 42.9375 C52.95361328 43.82308594 52.96972656 44.70867187 52.98632812 45.62109375 C52.99364019 55.58013043 49.88944299 65.93960056 42.86328125 73.27734375 C32.0488086 82.36150078 17.68564576 87.5050997 4.625 92.4375 C3.54347656 92.85257812 2.46195312 93.26765625 1.34765625 93.6953125 C-5.94886364 96.4375 -5.94886364 96.4375 -9.375 96.4375 C-9.375 98.7475 -9.375 101.0575 -9.375 103.4375 C10.425 103.4375 30.225 103.4375 50.625 103.4375 C50.625 114.6575 50.625 125.8775 50.625 137.4375 C14.325 137.4375 -21.975 137.4375 -59.375 137.4375 C-59.375 90.26946046 -59.375 90.26946046 -46.8125 77.5 C-46.04808594 76.70722656 -45.28367187 75.91445313 -44.49609375 75.09765625 C-36.5128672 67.8347103 -26.41386976 63.2961173 -16.75 58.75 C-15.58726562 58.19505859 -14.42453125 57.64011719 -13.2265625 57.06835938 C-6.98207494 54.09798944 -0.70857184 51.21265781 5.625 48.4375 C5.955 44.4775 6.285 40.5175 6.625 36.4375 C1.8965098 36.5324558 -2.83155095 36.63882278 -7.55957031 36.75488281 C-9.16139059 36.7927009 -10.76328229 36.82762698 -12.36523438 36.859375 C-22.54255586 37.06343157 -32.31698547 37.78040645 -42.375 39.4375 C-45.03946077 39.79408211 -47.70589961 40.11720795 -50.375 40.4375 C-55.58389928 19.21991691 -55.58389928 19.21991691 -55.375 8.4375 C-37.94593664 1.18576471 -18.64190113 0.15549763 0 0 Z " fill="#1B1B1B" transform="translate(323.375,278.5625)"/>
<path d="M0 0 C8.11386777 8.25621633 10.86813137 19.14329672 11.09375 30.4375 C10.94534392 36.09042261 10.21779464 41.34997039 8.78125 46.8125 C8.60980469 47.57175781 8.43835938 48.33101563 8.26171875 49.11328125 C5.78727062 58.35654233 -0.37774074 63.99730146 -8.40625 68.8125 C-21.91954501 76.27933937 -36.59999751 81.92320295 -51.21875 86.8125 C-51.54875 88.7925 -51.87875 90.7725 -52.21875 92.8125 C-32.08875 92.8125 -11.95875 92.8125 8.78125 92.8125 C8.78125 104.0325 8.78125 115.2525 8.78125 126.8125 C-27.51875 126.8125 -63.81875 126.8125 -101.21875 126.8125 C-101.21875 79.3125 -101.21875 79.3125 -91.21875 68.8125 C-90.54328125 68.09707031 -89.8678125 67.38164062 -89.171875 66.64453125 C-75.29764423 53.11948414 -53.54820367 43.28631295 -35.21875 37.8125 C-35.21875 33.8525 -35.21875 29.8925 -35.21875 25.8125 C-40.64112643 25.8822796 -46.06279652 25.97065788 -51.48461914 26.07495117 C-53.32210326 26.107835 -55.15967955 26.13597543 -56.99731445 26.15893555 C-67.40002494 26.29234002 -77.22778231 26.81494916 -87.38061523 29.18041992 C-90.21875 29.8125 -90.21875 29.8125 -93.21875 29.8125 C-95.78089239 19.18814955 -97.17205739 8.67347506 -98.21875 -2.1875 C-71.71278403 -11.92015938 -23.83344485 -19.53561053 0 0 Z " fill="#1B1B1B" transform="translate(237.21875,289.1875)"/>
<path d="M0 0 C5.06550058 4.37644352 8.57453771 9.1312513 9.17455673 15.99752808 C9.23377418 18.34476582 9.22777025 20.68343282 9.19873047 23.03125 C9.19569412 23.91981689 9.19265778 24.80838379 9.18952942 25.72387695 C9.17628968 28.64943321 9.14763473 31.57457552 9.1171875 34.5 C9.10115872 36.53971096 9.08546752 38.57942459 9.07009888 40.61914062 C9.03515159 44.8894265 8.99179781 49.15953438 8.94335938 53.4296875 C8.8826255 58.89716063 8.84939396 64.36441968 8.82330132 69.83215332 C8.79903875 74.04281661 8.75682923 78.25316082 8.70956802 82.46362305 C8.68973148 84.47935801 8.67623669 86.49516588 8.66924667 88.51098633 C8.65743955 91.33080538 8.62063277 94.14925722 8.57763672 96.96875 C8.57952499 97.79802002 8.58141327 98.62729004 8.58335876 99.48168945 C8.46824815 104.78181395 7.47279591 107.77574803 4 112 C-2.56345665 118.27808897 -8.15912107 119.48818572 -17.03125 119.3125 C-24.46831853 118.52965068 -29.21953503 114.4800452 -34 109 C-35.22357523 105.3292743 -35.16837351 101.92754084 -35.18945312 98.10375977 C-35.19774643 97.3002005 -35.20603973 96.49664124 -35.21458435 95.66873169 C-35.23198013 93.92377755 -35.24714825 92.17880011 -35.26036072 90.43380928 C-35.28139323 87.6726028 -35.30841617 84.91151295 -35.33703613 82.15037537 C-35.39672799 76.28779508 -35.44888189 70.42516049 -35.5 64.5625 C-35.55923923 57.77287913 -35.62155183 50.98331582 -35.69187927 44.19379997 C-35.71844301 41.4728518 -35.73926478 38.7518978 -35.7598877 36.03089905 C-35.77649303 34.3624748 -35.79336508 32.69405318 -35.81054688 31.02563477 C-35.8168235 29.89010918 -35.8168235 29.89010918 -35.82322693 28.73164368 C-35.8637802 25.33162979 -36.04793944 22.26756246 -37 19 C-36.31619097 11.62558894 -33.54526855 6.48742154 -28.25 1.3125 C-19.05602494 -5.22936687 -9.88339714 -5.67028233 0 0 Z " fill="#1A1A1A" transform="translate(171,8)"/>
<path d="M0 0 C4.54889528 4.00536919 8.61258824 8.65773139 9.17170143 14.92449951 C9.22733181 17.29418122 9.21608553 19.65527003 9.18286133 22.02539062 C9.17821869 22.92517136 9.17357605 23.82495209 9.16879272 24.7519989 C9.15044226 27.72026953 9.11691302 30.68813077 9.08203125 33.65625 C9.06346729 35.72220447 9.04538228 37.7881633 9.02775574 39.85412598 C8.98827521 44.18166255 8.94091535 48.50902818 8.88842773 52.83642578 C8.82209842 58.38133235 8.77848333 63.92615299 8.74116993 69.47132111 C8.70942333 73.73680626 8.66403502 78.00206515 8.61469078 82.26737976 C8.59298605 84.31186086 8.5758986 86.35639639 8.56351662 88.4009552 C8.54447635 91.25920715 8.50668738 94.1166242 8.46411133 96.97460938 C8.46155083 98.24028999 8.46155083 98.24028999 8.4589386 99.53153992 C8.34819443 105.145843 7.29033471 108.48856862 3.421875 112.73046875 C-2.89812967 118.23832329 -8.98976523 119.50186506 -17.2890625 119.30859375 C-24.30850844 118.50955019 -28.56182175 114.96372109 -32.87109375 109.5859375 C-35.60451014 105.74591309 -35.20435227 101.91197609 -35.26879883 97.36279297 C-35.2851236 96.4682692 -35.30144836 95.57374542 -35.31826782 94.65211487 C-35.37041836 91.68220294 -35.4145818 88.71225321 -35.45703125 85.7421875 C-35.47213934 84.72797855 -35.48724743 83.71376961 -35.50281334 82.66882706 C-35.58200603 77.2975145 -35.65462161 71.92615545 -35.72241211 66.5546875 C-35.79377103 61.01291761 -35.88877651 55.47181812 -35.98918629 49.93050957 C-36.06196604 45.6651697 -36.11653343 41.39973259 -36.16626549 37.13406754 C-36.19330008 35.09191772 -36.22723465 33.04984683 -36.26828957 31.00793076 C-36.32424849 28.14301958 -36.35422896 25.27890799 -36.37817383 22.41357422 C-36.40033463 21.57585983 -36.42249542 20.73814545 -36.44532776 19.87504578 C-36.45768291 13.23148403 -34.60370318 8.15544028 -30.359375 3.01171875 C-20.86785504 -4.79805132 -10.94497119 -6.29686644 0 0 Z " fill="#1A1A1A" transform="translate(368,8)"/>
<path d="M0 0 C7.58815439 6.21977748 7.58815439 6.21977748 9.8125 9.9375 C10.19019531 10.54464844 10.56789063 11.15179688 10.95703125 11.77734375 C15.09194678 20.58920494 15.48427402 31.00767511 13.16015625 40.390625 C9.73107852 49.3962837 3.78793148 57.17658163 -4.6640625 62.00390625 C-15.51073265 66.62915857 -26.0691714 67.32338743 -37 63 C-47.29421442 58.06799578 -54.03781669 51.20799832 -58.109375 40.47265625 C-60.80422719 29.9650966 -60.23818079 20.02113567 -54.7265625 10.5390625 C-52.3519387 7.04696868 -49.99129907 3.99129907 -47 1 C-46.34 1 -45.68 1 -45 1 C-44.98541748 1.83660156 -44.97083496 2.67320313 -44.95581055 3.53515625 C-44.89432781 6.67403443 -44.82009835 9.81229416 -44.73754883 12.95068359 C-44.68840355 14.96300311 -44.65363712 16.97565732 -44.61914062 18.98828125 C-44.42233966 30.245683 -44.42233966 30.245683 -39.3515625 40.0234375 C-38.78179687 40.46945313 -38.21203125 40.91546875 -37.625 41.375 C-37.06039063 41.83648437 -36.49578125 42.29796875 -35.9140625 42.7734375 C-29.53742464 46.85969115 -22.78876023 46.88902101 -15.49609375 45.53515625 C-10.1697317 44.01205103 -6.21571407 41.57580298 -3 37 C-0.93710205 32.79399364 -0.69724934 29.16826418 -0.5859375 24.51171875 C-0.56657135 23.80852005 -0.5472052 23.10532135 -0.5272522 22.3808136 C-0.46779817 20.14982981 -0.42120951 17.91879346 -0.375 15.6875 C-0.33678863 14.16859814 -0.29773508 12.64971722 -0.2578125 11.13085938 C-0.16212584 7.42076533 -0.07796928 3.71051349 0 0 Z " fill="#FDFCFB" transform="translate(377,80)"/>
<path d="M0 0 C0.01458252 0.9379541 0.02916504 1.8759082 0.04418945 2.84228516 C0.10546717 6.34269379 0.17965932 9.84234449 0.26245117 13.34228516 C0.29557926 14.85324904 0.32364855 16.36433307 0.34643555 17.87548828 C0.38020681 20.05553082 0.43252896 22.23448439 0.48828125 24.4140625 C0.51446533 25.7232666 0.54064941 27.0324707 0.56762695 28.38134766 C1.21418356 33.79256281 3.16352757 37.78172858 7.375 41.25 C8.22191406 41.96929687 8.22191406 41.96929687 9.0859375 42.703125 C15.00347834 46.71256083 21.07896295 46.70353617 28 46 C34.38617821 44.31489151 38.38305138 41.48022518 42 36 C43.75611795 31.60231994 44.2887615 27.78998333 44.4140625 23.0703125 C44.45273438 21.78125 44.49140625 20.4921875 44.53125 19.1640625 C44.56269758 17.81771293 44.59394511 16.47135868 44.625 15.125 C44.66323041 13.75518486 44.70228501 12.38539245 44.7421875 11.015625 C44.83622715 7.67721737 44.92188057 4.33881186 45 1 C49.89105418 3.30931575 52.08052489 6.51930825 55 11 C55.42023438 11.63679688 55.84046875 12.27359375 56.2734375 12.9296875 C60.73341821 21.0588722 60.3469009 31.68391325 58.1171875 40.484375 C54.05590419 51.08136588 47.32888798 58.2903792 37 63 C26.49681991 66.55018205 17.42258371 67.02853648 7 63 C-2.41919731 57.94078048 -9.67999947 50.12789107 -13.33984375 40.00390625 C-15.24977032 31.3131753 -15.63045093 20.90389583 -11.27734375 12.92578125 C-2.70385396 0 -2.70385396 0 0 0 Z " fill="#FDFCFB" transform="translate(135,80)"/>
<path d="M0 0 C0.33 0 0.66 0 1 0 C1 26.07 1 52.14 1 79 C0.67 79 0.34 79 0 79 C0 69.43 0 59.86 0 50 C-4.10987399 53.28789919 -5.74612476 54.68963798 -8.1875 58.9375 C-8.92033203 60.18853516 -8.92033203 60.18853516 -9.66796875 61.46484375 C-14.21939914 70.12724353 -14.52192651 80.08865456 -12.08984375 89.53515625 C-7.5835714 100.99644702 -0.74567349 107.10200938 10.41015625 112.07421875 C18.91448857 115.13024711 28.80514247 114.64062313 37.1015625 111 C46.86126719 105.8590856 53.43237575 99.46601627 57.30859375 88.97265625 C59.35221749 80.18622878 59.45415473 69.04222383 55 61 C52.29759303 57.04647869 49.38677912 53.38677912 46 50 C45.67 60.23 45.34 70.46 45 81 C44.67 81 44.34 81 44 81 C44 54.27 44 27.54 44 0 C44.33 0 44.66 0 45 0 C45 13.53 45 27.06 45 41 C46.65 41.66 48.3 42.32 50 43 C57.9046701 48.97203049 63.88285356 58.40762086 66 68 C66.31036927 71.08902957 66.38121986 74.14660247 66.375 77.25 C66.37338867 78.08684326 66.37177734 78.92368652 66.37011719 79.78588867 C66.18741665 89.04002907 63.7296429 96.63331627 58 104 C57.51917969 104.63550781 57.03835938 105.27101563 56.54296875 105.92578125 C49.78151247 114.33405592 39.68993244 120.24168506 29 122 C16.18499351 122.88379355 6.22675495 120.86973143 -4 113 C-4.60457031 112.58234375 -5.20914062 112.1646875 -5.83203125 111.734375 C-13.07606531 106.30543751 -18.82963315 96.70274552 -21 88 C-22.53618194 73.70555942 -20.93130424 62.18897465 -12.0625 50.5625 C-8.97090341 46.93323444 -5.88100747 43.77214819 -2 41 C-1.34 41 -0.68 41 0 41 C0 27.47 0 13.94 0 0 Z " fill="#C13127" transform="translate(332,31)"/>
<path d="M0 0 C0.33 0 0.66 0 1 0 C1 26.73 1 53.46 1 81 C0.67 81 0.34 81 0 81 C-0.495 65.655 -0.495 65.655 -1 50 C-10.98925118 61.41628706 -13.97784778 69.12816922 -13.22216797 83.84667969 C-12.33447316 92.45049093 -7.55975511 100.48635969 -1 106 C9.5174741 113.04309177 18.48522952 115.22549036 31 113 C41.1187321 109.96680692 48.68386525 105.30447884 53.93359375 96.03515625 C54.46146484 95.02775391 54.46146484 95.02775391 55 94 C55.598125 92.865625 56.19625 91.73125 56.8125 90.5625 C59.84542704 81.62241855 59.40172244 70.75442571 55.3125 62.3125 C51.25156816 55.10408844 51.25156816 55.10408844 45 50 C45 59.57 45 69.14 45 79 C44.67 79 44.34 79 44 79 C44 52.93 44 26.86 44 0 C44.33 0 44.66 0 45 0 C45 13.53 45 27.06 45 41 C46.32 41.66 47.64 42.32 49 43 C57.46094845 48.66035479 63.40388485 58.22932436 66 68 C66.42044065 71.30385417 66.47799196 74.54738298 66.4375 77.875 C66.42847656 78.76050537 66.41945313 79.64601074 66.41015625 80.55834961 C66.2368569 87.08656022 65.50615832 92.37039369 62 98 C61.42894531 98.92039062 60.85789062 99.84078125 60.26953125 100.7890625 C53.25294107 111.18089865 43.87166299 118.5044436 31.55859375 121.6171875 C18.86734446 123.51603091 7.61153516 121.14882369 -3 114 C-12.36496603 107.03072295 -18.18534764 98.33279938 -21 87 C-21.38515096 83.79732164 -21.42204405 80.66001767 -21.375 77.4375 C-21.38660156 76.63892578 -21.39820312 75.84035156 -21.41015625 75.01757812 C-21.35163564 63.05011292 -15.13686332 52.6832977 -6.80859375 44.375 C-5 43 -5 43 0 41 C0 27.47 0 13.94 0 0 Z " fill="#C13127" transform="translate(135,31)"/>
</svg>
