<?xml version="1.0" encoding="iso-8859-1"?>
<!-- Generator: Adobe Illustrator 19.0.0, SVG Export Plug-In . SVG Version: 6.00 Build 0)  -->
<svg version="1.1" id="Layer_1" xmlns="http://www.w3.org/2000/svg" xmlns:xlink="http://www.w3.org/1999/xlink" x="0px" y="0px"
	 viewBox="0 0 481.896 481.896" style="enable-background:new 0 0 481.896 481.896;" xml:space="preserve">
<path style="fill:#D32F2F;" d="M152.097,30.118C152.097,13.485,138.604,0,121.979,0H31.626C14.994,0,1.509,13.485,1.509,30.118
	v421.647c0,16.632,13.485,30.118,30.118,30.118h90.353c16.625,0,30.118-13.485,30.118-30.118V30.118z"/>
<path style="fill:#1565C0;" d="M302.685,30.118C302.685,13.485,289.193,0,272.568,0h-90.353c-16.632,0-30.118,13.485-30.118,30.118
	v421.647c0,16.632,13.485,30.118,30.118,30.118h90.353c16.625,0,30.118-13.485,30.118-30.118V30.118z"/>
<g>
	<rect x="31.626" y="30.118" style="fill:#FFFFFF;" width="90.353" height="240.941"/>
	<rect x="182.215" y="30.118" style="fill:#FFFFFF;" width="90.353" height="240.941"/>
	<rect x="31.626" y="301.176" style="fill:#FFFFFF;" width="90.353" height="60.235"/>
	<rect x="182.215" y="301.176" style="fill:#FFFFFF;" width="90.353" height="60.235"/>
</g>
<g>
	<circle style="fill:#212121;" cx="76.803" cy="421.647" r="30.118"/>
	<circle style="fill:#212121;" cx="227.391" cy="421.647" r="30.118"/>
</g>
<path style="fill:#EF5350;" d="M31.626,30.118h90.353v84.435l30.118-30.118V30.118C152.097,13.493,138.604,0,121.979,0H31.626
	C14.994,0,1.509,13.493,1.509,30.118v204.905l30.118-30.118V30.118z"/>
<path style="fill:#1E88E5;" d="M182.215,30.118h90.353v84.435l30.118-30.118V30.118C302.685,13.493,289.193,0,272.568,0h-90.353
	c-16.632,0-30.118,13.493-30.118,30.118v204.905l30.118-30.118V30.118z"/>
<path style="fill:#00897B;" d="M454.139,30.502c-1.032-16.339-15.119-28.747-31.458-27.716l-88.779,5.617
	c-16.339,1.039-28.74,15.119-27.716,31.458l26.195,414.246c1.032,16.354,15.119,28.755,31.458,27.731l88.772-5.617
	c16.339-1.024,28.755-15.119,27.716-31.465L454.139,30.502z"/>
<g>
	
		<rect x="343.191" y="34.969" transform="matrix(0.998 -0.0631 0.0631 0.998 -8.9169 24.7679)" style="fill:#FFFFFF;" width="88.952" height="237.175"/>
	
		<rect x="354.432" y="301.461" transform="matrix(0.998 -0.063 0.063 0.998 -20.0676 25.7891)" style="fill:#FFFFFF;" width="88.944" height="59.293"/>
</g>
<circle style="fill:#212121;" cx="404.483" cy="419.84" r="29.651"/>
<g>
</g>
<g>
</g>
<g>
</g>
<g>
</g>
<g>
</g>
<g>
</g>
<g>
</g>
<g>
</g>
<g>
</g>
<g>
</g>
<g>
</g>
<g>
</g>
<g>
</g>
<g>
</g>
<g>
</g>
</svg>
