<?xml version="1.0" encoding="iso-8859-1"?>
<!-- Generator: Adobe Illustrator 19.0.0, SVG Export Plug-In . SVG Version: 6.00 Build 0)  -->
<svg version="1.1" id="Layer_1" xmlns="http://www.w3.org/2000/svg" xmlns:xlink="http://www.w3.org/1999/xlink" x="0px" y="0px"
	 viewBox="0 0 481.882 481.882" style="enable-background:new 0 0 481.882 481.882;" xml:space="preserve">
<g>
	<path style="fill:#FFFFFF;" d="M240.941,301.176c133.12,0,225.882,43.648,225.882,82.824s-92.762,82.824-225.882,82.824
		S15.059,423.176,15.059,384S107.821,301.176,240.941,301.176 M240.941,286.118C107.874,286.118,0,329.939,0,384
		s107.874,97.882,240.941,97.882S481.882,438.061,481.882,384S374.008,286.118,240.941,286.118L240.941,286.118z"/>
	<path style="fill:#FFFFFF;" d="M240.941,346.353c93.282,0,135.529,25.992,135.529,33.882c0,7.891-42.248,33.882-135.529,33.882
		s-135.529-25.992-135.529-33.882C105.412,372.344,147.659,346.353,240.941,346.353 M240.941,331.294
		c-83.17,0-150.588,21.911-150.588,48.941c0,27.031,67.418,48.941,150.588,48.941s150.588-21.911,150.588-48.941
		C391.529,353.205,324.111,331.294,240.941,331.294L240.941,331.294z"/>
</g>
<path style="fill:#D32F2F;" d="M289.604,95.691c7.281-9.954,11.618-22.189,11.618-35.456C301.222,26.97,274.251,0,240.986,0
	c-33.272,0-60.235,26.97-60.235,60.235c0,13.267,4.337,25.502,11.61,35.456c-11.61,2.304-62.705,16.233-56.2,48.783l9.623,102.385
	c2.816,14.065,15.179,24.2,29.538,24.2h7.304l5.805,93.35c1.536,15.398,14.487,27.121,29.967,27.121h45.176
	c15.473,0,28.424-11.723,29.96-27.121l5.813-93.35h7.304c14.351,0,26.722-10.135,29.53-24.207l9.63-102.385
	C351.503,116.013,311.341,99.998,289.604,95.691z"/>
<path style="fill:#EF5350;" d="M240.941,0c-33.25,0.03-60.19,26.985-60.19,60.235c0,13.267,4.337,25.502,11.61,35.456
	c-11.61,2.304-62.705,16.233-56.2,48.783l9.623,102.385c2.816,14.065,15.179,24.2,29.538,24.2h7.304l5.805,93.35
	c1.536,15.398,14.487,27.121,29.967,27.121h22.543V0z"/>
<g>
</g>
<g>
</g>
<g>
</g>
<g>
</g>
<g>
</g>
<g>
</g>
<g>
</g>
<g>
</g>
<g>
</g>
<g>
</g>
<g>
</g>
<g>
</g>
<g>
</g>
<g>
</g>
<g>
</g>
</svg>
